/* XPM */
static char *d7db493165734fe5dc3b15be119d73d2YBx2IGBF5VEYevSs[] = {
/* columns rows colors chars-per-pixel */
"64 64 256 2 ",
"   c black",
".  c blue",
"X  c green",
"o  c red",
"O  c cyan",
"+  c yellow",
"@  c magenta",
"#  c white",
"$  c #7B7B7B",
"%  c #7B7B7B",
"&  c #7B7B7B",
"*  c #7B7B7B",
"=  c #7B7B7B",
"-  c #7B7B7B",
";  c #7B7B7B",
":  c #7B7B7B",
">  c #7B7B7B",
",  c #7B7B7B",
"<  c #7B7B7B",
"1  c #7B7B7B",
"2  c #7B7B7B",
"3  c #7B7B7B",
"4  c #7B7B7B",
"5  c #7B7B7B",
"6  c #7B7B7B",
"7  c #7B7B7B",
"8  c #7B7B7B",
"9  c #7B7B7B",
"0  c #7B7B7B",
"q  c #7B7B7B",
"w  c #7B7B7B",
"e  c #7B7B7B",
"r  c #7B7B7B",
"t  c #7B7B7B",
"y  c #7B7B7B",
"u  c #7B7B7B",
"i  c #7B7B7B",
"p  c #7B7B7B",
"a  c #7B7B7B",
"s  c #7B7B7B",
"d  c #7B7B7B",
"f  c #7B7B7B",
"g  c #7B7B7B",
"h  c #7B7B7B",
"j  c #7B7B7B",
"k  c #7B7B7B",
"l  c #7B7B7B",
"z  c #7B7B7B",
"x  c #7B7B7B",
"c  c #7B7B7B",
"v  c #7B7B7B",
"b  c #7B7B7B",
"n  c #7B7B7B",
"m  c #7B7B7B",
"M  c #7B7B7B",
"N  c #7B7B7B",
"B  c #7B7B7B",
"V  c #7B7B7B",
"C  c #7B7B7B",
"Z  c #7B7B7B",
"A  c #7B7B7B",
"S  c #7B7B7B",
"D  c #7B7B7B",
"F  c #7B7B7B",
"G  c #7B7B7B",
"H  c #7B7B7B",
"J  c #7B7B7B",
"K  c #7B7B7B",
"L  c #7B7B7B",
"P  c #7B7B7B",
"I  c #7B7B7B",
"U  c #7B7B7B",
"Y  c #7B7B7B",
"T  c #7B7B7B",
"R  c #7B7B7B",
"E  c #7B7B7B",
"W  c #7B7B7B",
"Q  c #7B7B7B",
"!  c #7B7B7B",
"~  c #7B7B7B",
"^  c #7B7B7B",
"/  c #7B7B7B",
"(  c #7B7B7B",
")  c #7B7B7B",
"_  c #7B7B7B",
"`  c #7B7B7B",
"'  c #7B7B7B",
"]  c #7B7B7B",
"[  c #7B7B7B",
"{  c #7B7B7B",
"}  c #7B7B7B",
"|  c #7B7B7B",
" . c #7B7B7B",
".. c #7B7B7B",
"X. c #7B7B7B",
"o. c #7B7B7B",
"O. c #7B7B7B",
"+. c #7B7B7B",
"@. c #7B7B7B",
"#. c #7B7B7B",
"$. c #7B7B7B",
"%. c #7B7B7B",
"&. c #7B7B7B",
"*. c #7B7B7B",
"=. c #7B7B7B",
"-. c #7B7B7B",
";. c #7B7B7B",
":. c #7B7B7B",
">. c #7B7B7B",
",. c #7B7B7B",
"<. c #7B7B7B",
"1. c #7B7B7B",
"2. c #7B7B7B",
"3. c #7B7B7B",
"4. c #7B7B7B",
"5. c #7B7B7B",
"6. c #7B7B7B",
"7. c #7B7B7B",
"8. c #7B7B7B",
"9. c #7B7B7B",
"0. c #7B7B7B",
"q. c #7B7B7B",
"w. c #7B7B7B",
"e. c #7B7B7B",
"r. c #7B7B7B",
"t. c #7B7B7B",
"y. c #7B7B7B",
"u. c #7B7B7B",
"i. c #7B7B7B",
"p. c #7B7B7B",
"a. c #7B7B7B",
"s. c #7B7B7B",
"d. c #7B7B7B",
"f. c #7B7B7B",
"g. c #7B7B7B",
"h. c #7B7B7B",
"j. c #7B7B7B",
"k. c #7B7B7B",
"l. c #7B7B7B",
"z. c #7B7B7B",
"x. c #7B7B7B",
"c. c #7B7B7B",
"v. c #7B7B7B",
"b. c #7B7B7B",
"n. c #7B7B7B",
"m. c #7B7B7B",
"M. c #7B7B7B",
"N. c #7B7B7B",
"B. c #7B7B7B",
"V. c #7B7B7B",
"C. c #7B7B7B",
"Z. c #7B7B7B",
"A. c #7B7B7B",
"S. c #7B7B7B",
"D. c #7B7B7B",
"F. c #7B7B7B",
"G. c #7B7B7B",
"H. c #7B7B7B",
"J. c #7B7B7B",
"K. c #7B7B7B",
"L. c #7B7B7B",
"P. c #7B7B7B",
"I. c #7B7B7B",
"U. c #7B7B7B",
"Y. c #7B7B7B",
"T. c #7B7B7B",
"R. c #7B7B7B",
"E. c #7B7B7B",
"W. c #7B7B7B",
"Q. c #7B7B7B",
"!. c #7B7B7B",
"~. c #7B7B7B",
"^. c #7B7B7B",
"/. c #7B7B7B",
"(. c #7B7B7B",
"). c #7B7B7B",
"_. c #7B7B7B",
"`. c #7B7B7B",
"'. c #7B7B7B",
"]. c #7B7B7B",
"[. c #7B7B7B",
"{. c #7B7B7B",
"}. c #7B7B7B",
"|. c #7B7B7B",
" X c #7B7B7B",
".X c #7B7B7B",
"XX c #7B7B7B",
"oX c #7B7B7B",
"OX c #7B7B7B",
"+X c #7B7B7B",
"@X c #7B7B7B",
"#X c #7B7B7B",
"$X c #7B7B7B",
"%X c #7B7B7B",
"&X c #7B7B7B",
"*X c #7B7B7B",
"=X c #7B7B7B",
"-X c #7B7B7B",
";X c #7B7B7B",
":X c #7B7B7B",
">X c #7B7B7B",
",X c #7B7B7B",
"<X c #7B7B7B",
"1X c #7B7B7B",
"2X c #7B7B7B",
"3X c #7B7B7B",
"4X c #7B7B7B",
"5X c #7B7B7B",
"6X c #7B7B7B",
"7X c #7B7B7B",
"8X c #7B7B7B",
"9X c #7B7B7B",
"0X c #7B7B7B",
"qX c #7B7B7B",
"wX c #7B7B7B",
"eX c #7B7B7B",
"rX c #7B7B7B",
"tX c #7B7B7B",
"yX c #7B7B7B",
"uX c #7B7B7B",
"iX c #8B5A31",
"pX c #626A4A",
"aX c #202908",
"sX c #8B7352",
"dX c #293118",
"fX c #5A4120",
"gX c #393939",
"hX c #5A4A31",
"jX c #523918",
"kX c #735A39",
"lX c #394129",
"zX c #412918",
"xX c #625231",
"cX c #7B5229",
"vX c #5A4129",
"bX c #523929",
"nX c #625239",
"mX c #525239",
"MX c #524131",
"NX c #6A5241",
"BX c #4A3920",
"VX c #4A3929",
"CX c #202020",
"ZX c #735A4A",
"AX c #392910",
"SX c #5A6241",
"DX c #835231",
"FX c #6A4120",
"GX c #392918",
"HX c #313920",
"JX c #292008",
"KX c #836A4A",
"LX c #414A31",
"PX c gray16",
"IX c #836A52",
"UX c #414141",
/* pixels */
"hXMXMXMXMXvXxXvXvXFXxXvXxXMXBXhXMXMXBXhXhXMXvXhXvXBXvXxXMXBXlXBXbXMXbXBXBXBXBXMXLXMXBXhXhXvXvXMXvXBXBXhXhXMXMXhXxXkXxXMXvXhXvXMX",
"NXxXhXNXMXBXNXMXxXxXMXhXkXxXhXNXNXMXMXNXMXBXMXvXvXhXMXvXbXbXBXvXBXMXMXxXMXMXMXMXMXMXMXMXNXvXMXMXvXMXMXMXhXvXBXhXvXNXxXhXhXkXxXhX",
"vXvXBXvXMXbXvXvXxXMXBXvXNXMXBXvXNXBXgXkXMXvXBXvXhXzXBXMXBXBXzXMXzXBXBXMXgXHXMXbXMXBXzXvXvXvXvXvXBXBXhXBXvXfXMXvXzXvXvXMXxXxXbXvX",
"hXBXbXfXBXBXvXvXvXFXBXxXxXzXBXzXhXBXPXxXJXzXBXvXfXBXBXHXBXzXBXaXAXzXzXAXAXBXMXBXhXBXBXMXBXvXcXvXBXBXBXzXBXzXBXfXBXfXBXzXFXzXMXBX",
"BXMXbXBXBXBXfXvXFXMXMXFXlXvXBXPXbXBXBXDXBXlXvXHXvXBXBXBXPXzXbXBXzXPXBXlXBXBXBXvXvXMXFXbXzXfXBXBXvXBXBXBXfXzXMXvXvXvXbXzXfXfXBXvX",
"vXBXvXvXbXfXBXvXMXlXhXBXMXBXhXxXMXBXxXBXBXMXxXFXfXvXvXBXBXHXBXzXBXzXBXMXBXBXvXMXMXBXhXvXBXBXvXBXFXbXbXzXvXBXvXvXFXfXPXBXBXBXMXvX",
"fXMXhXMXbXvXMXbXvXbXMXkXBXMXxXhXBXMXhXBXBXBXvXFXvXBXvXlXvXBXBXzXlXAXBXBXMXBXMXMXBXzXhXvXMXFXxXMXvXbXBXBXMXAXFXBXBXfXlXBXMXBXBXxX",
"BXbXvXBXBXvXBXvXBXBXhXvXzXMXhXMXBXvXFXbXhXvXBXhXxXMXvXMXMXBXBXhXBXbXBXBXBXBXbXlXfXBXxXBXvXBXMXMXMXhXMXvXMXbXBXxXxXvXBXNXvXMXMXFX",
"fXbXMXMXBXvXvXFXBXBXfXMXMXBXMXBXBXBXhXBXvXMXvXvXMXMXvXBXzXBXbXBXBXBXBXBXbXbXzXvXfXFXvXxXMXBXBXBXBXMXBXBXbXhXxXFXvXBXMXxXzXBXBXkX",
"fXhXvXBXBXMXNXvXBXvXxXBXBXMXhXBXbXhXxXBXMXMXhXxXxXMXvXxXBXbXBXMXMXBXMXBXMXBXMXhXFXNXFXfXhXBXMXxXhXBXvXNXbXBXBXNXBXMXMXxXMXMXkXkX",
"BXhXMXMXMXNXNXkXNXNXNXxXBXMXMXMXhXhXMXbXhXBXFXkXMXMXMXxXMXMXMXMXzXBXzXfXhXhXNXkXxXkXkXiXkXNXxXMXMXBXbXMXMXxXNXNXvXMXfXMXNXMXNXxX",
"xXvXxXMXvXBXkXkXMXNXZXNXMXhXNXhXMXvXhXhXMXhXkXMXSXMXNXNXMXbXMXNXMXMXBXMXMXhXhXkXKXKXkXkXNXBXxXNXNXhXhXNXNXMXNXkXNXMXNXvXhXMXkXNX",
"xXNXkXMXxXMXhXxXMXNXNXNXNXNXMXMXxXNXMXMXxXNXkXNXxXhXMXMXBXBXMXNXvXMXBXxXhXNXMXMXMXhXiXxXxXMXMXMXhXNXMXxXvXxXxXvXBXMXNXvXxXxXkXNX",
"NXNXNXvXvXlXxXMXNXfXNXhXNXpXbXzXkXBXBXvXMXMXhXNXhXhXMXMXMXBXMXNXMXhXBXxXMXzXBXhXhXxXMXxXhXHXMXvXMXhXMXhXMXNXNXNXMXvXvXvXvXFXxXxX",
"hXhXvXvXhXvXNXBXhXMXkXhXhXhXBXvXkXbXMXMXMXvXvXMXhXBXMXMXMXMXMXhXvXvXMXvXBXMXMXNXxXxXvXhXhXBXvXhXbXbXMXvXvXvXvXFXMXvXBXvXBXxXNXvX",
"FXBXvXkXMXxXbXLXNXvXhXMXMXvXBXNXNXMXMXBXvXbXfXvXvXBXbXbXBXMXBXvXhXvXvXvXBXxXbXNXvXxXNXvXBXvXvXvXMXvXlXBXzXxXfXFXMXxXBXBXbXvXhXhX",
"vXPXBXBXlXvXBXfXhXxXvXvXBXvXNXkXhXMXBXBXMXMXhXkXMXBXhXMXvXxXBXBXbXBXvXvXBXvXPXxXFXzXBXxXMXvXBXMXvXvXMXBXBXvXxXvXBXMXBXMXBXvXMXMX",
"vXMXvXvXhXNXvXxXhXkXhXvXMXMXxXNXMXMXMXhXvXvXvXvXMXbXBXbXBXfXBXMXMXMXvXvXBXxXhXbXBXhXxXMXxXhXMXhXvXhXvXBXfXvXFXMXBXMXMXBXhXkXvXvX",
"bXMXkXMXNXkXkXhXxXkXvXNXMXxXZXNXMXMXMXxXMXvXhXBXMXbXMXMXhXNXxXMXbXMXvXMXbXMXNXNXxXMXhXMXNXNXhXMXxXhXxXxXxXxXNXhXhXkXNXhXkXkXNXNX",
"MXhXMXBXMXxXkXMXhXNXMXNXMXhXMXNXhXMXNXNXMXhXBXMXMXbXBXBXBXkXvXhXMXNXkXMXxXNXxXhXxXvXMXBXkXxXMXMXkXMXNXxXvXkXBXhXNXkXMXMXUXkXMXxX",
"MXiXBXbXxXvXMXhXxXvXMXlXMXxXxXNXvXMXxXNXvXhXBXBXMXbXbXMXNXvXBXMXMXNXhXNXvXvXfXvXvXkXMXMXvXMXMXBXxXMXxXBXNXxXhXhXxXNXMXhXNXhXxXvX",
"BXNXBXBXMXvXBXMXhXMXBXMXvXBXvXBXMXBXBXvXvXxXbXMXMXbXBXMXBXMXBXbXMXBXxXNXvXMXBXhXvXxXlXBXhXBXbXhXvXhXxXNXvXxXvXMXhXhXMXxXxXBXhXMX",
"MXBXBXvXzXvXBXBXvXhXvXBXvXhXvXhXMXbXhXvXvXvXBXMXMXbXBXMXFXBXhXBXxXcXvXxXvXBXMXhXhXBXbXBXBXBXBXvXvXvXxXNXvXMXBXMXMXvXbXvXBXvXMXBX",
"BXBXvXMXxXBXfXBXvXMXMXzXFXvXMXBXMXBXvXBXzXBXzXAXAXBXBXBXfXBXMXvXNXxXxXvXbXbXvXMXBXBXBXBXBXzXfXMXBXfXBXAXPXBXBXvXMXhXBXBXvXMXBXBX",
"BXBXBXBXvXBXfXvXvXvXMXBXMXvXvXBXzXBXvXzXzXzXbXJXzXBXBXBXMXMXBXxXvXxXxXBXMXMXvXMXvXxXBXBXBXBXBXzXBXvXBXzXBXzXvXvXBXvXvXvXxXbXMXBX",
"zXfXvXhXxXBXBXxXxXxXbXzXMXBXMXMXBXhXbXBXvXBXlXPXBXFXzXvXBXzXBXxXvXhXvXBXBXMXMXLXxXxXBXbXBXBXAXzXBXfXvXBXBXvXvXMXBXBXMXhXxXMXvXbX",
"BXMXkXBXFXBXhXxXhXBXBXMXvXvXhXMXvXvXBXBXMXMXBXBXBXxXBXvXBXBXMXxXvXhXxXNXBXvXBXxXvXBXBXBXvXvXgXBXBXvXBXvXvXxXbXhXvXBXvXNXMXMXMXvX",
"MXvXxXNXkXvXbXhXvXxXMXMXhXxXxXMXxXMXLXzXvXvXbXMXBXBXzXbXBXMXBXNXBXkXBXhXMXBXvXNXhXBXBXMXNXMXvXbXvXxXFXhXvXhXBXvXxXNXvXvXMXbXvXxX",
"hXxXxXxXhXvXMXvXhXhXMXMXkXvXkXvXNXMXvXBXxXhXBXhXMXbXzXMXMXMXhXNXBXxXbXMXMXvXMXxXkXMXbXBXMXNXhXBXNXMXFXNXNXNXvXMXkXMXxXhXBXMXNXvX",
"MXBXvXvXhXNXxXNXvXhXbXBXvXxXkXBXBXBXBXvXBXzXMXxXvXvXbXMXBXBXNXBXxXFXBXBXhXMXvXxXxXMXMXBXBXMXMXBXBXvXNXhXhXfXNXvXkXBXNXBXNXvXhXlX",
"hXNXxXMXMXNXNXvXhXMXMXNXMXhXBXzXMXMXMXvXBXBXvXMXvXMXBXzXBXzXMXMXxXBXbXAXUXMXBXxXMXBXzXvXBXBXhXMXBXxXvXBXhXvXvXFXvXbXvXMXhXvXBXlX",
"MXMXvXvXvXFXBXzXBXbXMXvXBXxXbXMXMXzXBXbXBXzXMXBXBXBXBXBXPXBXBXMXNXBXMXbXMXBXvXvXxXvXBXMXzXMXbXBXBXvXbXfXhXMXBXvXMXBXMXBXMXvXBXBX",
"MXNXfXBXMXzXkXNXMXlXzXFXBXNXBXvXxXBXMXMXMXNXMXMXvXBXBXhXBXBXMXvXvXBXNXMXhXxXvXFXxXMXBXBXxXMXMXMXMXvXBXhXhXMXvXxXzXvXhXbXNXxXMXPX",
"MXhXxXMXxXxXvXBXBXBXvXcXBXxXBXvXvXMXvXMXbXkXBXkXvXMXvXhXMXxXhXhXBXvXMXlXbXvXhXhXhXbXvXMXMXMXMXhXvXbXvXNXhXbXNXNXhXBXlXMXNXhXhXlX",
"BXMXMXhXxXNXvXvXzXbXBXxXcXvXhXBXMXMXBXlXMXMXMXMXvXBXBXFXBXxXhXhXvXvXPXBXMXxXBXvXMXbXMXvXbXMXBXhXbXBXBXMXMXBXxXvXBXfXbXbXfXvXvXBX",
"BXzXzXvXFXvXvXbXBXvXFXBXfXAXlXMXfXBXMXBXBXfXFXFXhXMXMXbXzXFXBXBXlXMXHXAXfXfXBXBXhXBXPXbXAXHXHXzXhXBXzXxXBXfXBXfXfXBXBXzXBXzXBXzX",
"BXBXBXkXhXFXvXBXMXBXFXvXMXPXBXMXMXzXMXzXBXzXBXBXhXbXBXzXBXvXBXfXvXBXBXBXfXvXfXkXMXBXlXNXBXBXzXFXxXMXhXvXMXFXzXxXfXbXBXzXBXBXAXBX",
"BXfXMXvXkXvXfXBXBXBXFXMXbXAXbXBXvXBXBXMXbXvXxXBXxXBXzXMXBXhXBXvXzXzXzXPXxXBXvXvXlXBXbXMXBXbXvXvXBXBXxXfXMXfXBXFXBXBXBXMXvXBXzXBX",
"BXvXvXfXxXxXzXzXAXMXBXMXBXBXBXzXMXMXzXzXbXhXvXfXvXBXzXzXBXBXMXzXbXBXlXzXfXMXFXhXBXMXlXBXBXBXvXvXBXMXFXbXhXFXNXvXbXBXBXhXBXPXBXvX",
"vXxXhXxXxXcXBXhXBXMXvXhXBXbXhXhXzXMXbXbXBXMXvXFXBXzXzXNXMXvXvXMXBXBXMXNXBXMXMXhXBXMXMXBXBXBXvXFXBXvXvXMXMXvXDXhXBXBXBXMXBXBXMXvX",
"xXzXvXMXxXxXMXMXBXBXvXvXbXBXfXvXBXFXbXBXBXMXvXxXBXMXMXxXMXMXbXlXMXxXMXfXzXMXvXhXBXbXBXlXPXFXFXMXMXxXBXBXzXvXMXfXMXMXMXBXBXbXBXvX",
"xXMXhXBXhXMXBXBXMXMXhXBXBXbXBXhXMXhXBXBXMXkXxXkXzXMXxXhXvXMXMXBXvXhXBXhXNXNXxXBXvXMXBXBXMXhXvXBXUXxXMXMXhXhXMXvXgXhXBXBXMXMXhXvX",
"vXvXFXkXvXNXhXMXMXMXNXMXNXMXvXMXhXNXNXhXxXsXNXKXBXNXkXxXBXPXhXvXBXNXhXhXNXkXMXMXMXNXBXhXMXKXNXZXBXNXhXNXFXlXxXbXMXNXMXbXMXhXNXhX",
"MXNXxXkXKXNXhXbXBXhXNXNXhXhXNXMXmXhXMXBXNXIXvXNXMXMXZXMXNXvXBXNXNXNXMXNXNXkXNXhXNXNXMXNXZXNXMXBXMXNXNXhXNXxXNXhXNXMXBXMXbXMXNXMX",
"MXNXNXxXhXNXMXBXMXxXBXMXNXhXkXMXBXhXMXvXAXkXxXxXhXNXhXNXBXMXMXxXbXhXMXFXhXNXhXbXLXNXMXNXMXxXNXMXvXNXMXhXkXkXxXMXhXMXBXbXMXMXvXBX",
"MXxXhXMXvXvXBXMXbXvXBXNXhXxXhXBXMXzXBXvXkXxXNXMXMXMXvXBXBXbXvXNXBXMXMXMXvXvXhXNXxXbXMXBXvXMXvXbXMXvXMXMXFXvXBXvXBXMXMXMXlXvXxXgX",
"MXMXbXBXBXBXMXMXbXMXMXMXMXbXMXBXvXBXBXhXxXNXbXMXhXvXBXBXBXlXvXkXvXMXbXxXvXhXMXMXhXBXMXhXBXvXMXBXhXhXBXMXvXvXvXvXvXBXMXBXMXMXvXMX",
"BXxXxXBXxXBXMXMXfXxXhXMXBXvXBXBXBXbXbXFXFXBXBXBXBXMXMXvXMXMXxXhXvXbXzXxXBXMXhXbXMXMXMXMXxXhXMXBXvXBXBXvXFXNXvXbXMXlXBXMXMXBXvXbX",
"MXBXMXfXMXBXlXbXhXvXvXzXvXMXBXzXMXMXbXMXkXMXBXzXBXzXBXBXNXvXbXBXBXzXhXMXFXxXBXBXbXMXvXMXxXxXMXMXbXBXBXfXxXMXbXBXBXlXMXSXMXFXBXzX",
"lXfXhXhXNXlXBXzXvXvXzXBXvXvXLXBXMXMXBXvXNXNXzXvXvXBXBXvXNXxXxXvXMXhXzXvXxXvXBXMXPXbXbXxXvXvXBXvXxXBXLXvXhXBXBXBXMXbXfXxXBXvXfXbX",
"MXhXNXNXMXMXMXMXhXhXxXMXNXNXMXbXbXMXNXhXhXMXMXNXkXhXhXhXMXBXvXMXhXxXkXxXxXkXMXbXNXhXNXBXNXlXNXMXkXMXxXkXNXMXBXhXMXMXhXNXhXNXNXhX",
"xXxXkXNXhXMXMXMXvXMXhXhXxXhXMXMXhXMXNXNXNXNXBXhXNXhXNXMXMXNXkXhXbXNXxXNXxXhXMXhXNXBXhXxXhXMXMXkXNXhXkXxXxXMXMXMXMXhXMXNXNXMXkXxX",
"hXvXhXhXMXbXMXNXMXvXMXMXMXBXbXMXMXMXxXkXvXMXBXMXxXBXbXBXMXvXNXxXvXxXxXcXvXhXBXMXBXvXBXBXxXBXxXNXxXMXMXNXMXBXMXMXhXNXMXNXvXbXNXMX",
"NXhXMXBXMXMXMXNXhXvXxXvXvXBXbXBXBXBXvXxXhXMXBXvXvXxXMXBXNXvXNXBXxXvXkXkXxXMXxXBXBXvXBXvXNXvXhXNXBXBXxXxXMXBXMXBXMXBXBXBXMXhXNXhX",
"BXvXBXhXBXBXfXhXhXBXBXxXhXBXBXBXBXBXbXxXBXMXBXBXBXvXvXBXBXxXBXvXxXxXkXvXvXBXvXBXbXBXBXvXvXvXxXMXBXvXcXMXBXMXlXBXMXBXvXBXMXvXvXvX",
"BXFXBXBXBXBXBXMXBXzXzXBXFXBXMXbXBXBXfXMXMXBXzXzXBXzXvXBXvXhXBXzXxXcXvXiXBXBXMXzXHXfXzXFXvXMXzXvXlXvXxXvXfXBXBXMXlXbXBXBXzXhXFXFX",
"BXMXMXlXBXBXBXBXBXzXvXzXBXHXBXBXlXBXBXBXMXPXBXBXBXBXbXBXbXvXBXvXfXBXvXkXvXbXMXBXzXAXBXvXBXFXBXBXlXfXvXvXxXBXMXMXBXlXBXBXBXBXFXvX",
"xXxXMXbXBXMXBXvXBXbXxXMXBXhXvXMXMXMXBXvXMXBXBXbXvXhXMXBXvXvXlXFXvXvXFXFXvXBXBXMXBXBXvXxXzXxXvXvXMXhXBXMXhXBXMXMXvXBXlXBXBXFXvXMX",
"vXMXMXBXMXvXBXMXBXBXvXBXMXBXxXNXhXBXkXvXBXMXMXzXvXvXvXBXBXhXlXhXvXxXvXvXBXBXBXMXvXBXBXhXBXvXvXhXBXvXvXhXhXMXMXMXBXvXvXvXfXxXvXBX",
"xXMXMXMXBXBXhXvXhXBXhXvXBXvXhXMXMXvXxXhXMXMXMXMXBXhXMXvXhXBXvXxXvXxXvXvXBXMXbXMXvXBXxXxXhXvXMXvXMXvXMXhXvXMXhXMXvXvXvXvXBXvXBXMX",
"kXhXhXbXMXhXhXhXMXhXxXMXMXhXhXMXMXhXxXBXMXMXvXvXhXMXMXMXxXvXvXBXxXvXkXxXhXbXNXBXBXMXxXhXBXvXhXMXMXvXMXxXMXMXMXxXMXvXMXxXxXxXvXvX",
"vXxXMXAXBXvXMXBXbXxXxXBXMXBXNXbXzXvXvXBXMXvXxXhXNXMXMXMXvXvXzXBXvXxXFXBXBXMXNXzXMXMXNXfXMXxXhXzXMXvXvXvXMXhXMXxXhXMXNXbXMXBXxXNX",
"BXMXBXzXvXBXBXzXvXxXvXBXBXzXfXbXMXMXzXMXbXvXvXvXvXMXfXxXBXAXMXvXBXBXfXBXMXBXBXBXBXBXMXzXvXvXBXBXvXMXMXvXbXMXhXbXBXvXBXBXBXFXvXxX",
"BXMXbXbXvXvXBXBXzXfXvXAXBXFXBXbXzXvXBXzXBXBXBXMXfXbXvXvXFXMXxXcXMXfXBXFXLXBXBXMXlXHXvXBXMXzXDXvXBXhXvXMXMXhXxXMXMXMXhXvXvXMXxXvX"
};
