/* XPM */
static char *_8c9657996354c70e7e9b9af6a07219bpgl5CDNCz81g8BgG[] = {
/* columns rows colors chars-per-pixel */
"64 64 256 2 ",
"   c black",
".  c blue",
"X  c green",
"o  c red",
"O  c cyan",
"+  c yellow",
"@  c magenta",
"#  c white",
"$  c #7B7B7B",
"%  c #7B7B7B",
"&  c #7B7B7B",
"*  c #7B7B7B",
"=  c #7B7B7B",
"-  c #7B7B7B",
";  c #7B7B7B",
":  c #7B7B7B",
">  c #7B7B7B",
",  c #7B7B7B",
"<  c #7B7B7B",
"1  c #7B7B7B",
"2  c #7B7B7B",
"3  c #7B7B7B",
"4  c #7B7B7B",
"5  c #7B7B7B",
"6  c #7B7B7B",
"7  c #7B7B7B",
"8  c #7B7B7B",
"9  c #7B7B7B",
"0  c #7B7B7B",
"q  c #7B7B7B",
"w  c #7B7B7B",
"e  c #7B7B7B",
"r  c #7B7B7B",
"t  c #7B7B7B",
"y  c #7B7B7B",
"u  c #7B7B7B",
"i  c #7B7B7B",
"p  c #7B7B7B",
"a  c #7B7B7B",
"s  c #7B7B7B",
"d  c #7B7B7B",
"f  c #7B7B7B",
"g  c #7B7B7B",
"h  c #7B7B7B",
"j  c #7B7B7B",
"k  c #7B7B7B",
"l  c #7B7B7B",
"z  c #7B7B7B",
"x  c #7B7B7B",
"c  c #7B7B7B",
"v  c #7B7B7B",
"b  c #7B7B7B",
"n  c #7B7B7B",
"m  c #7B7B7B",
"M  c #7B7B7B",
"N  c #7B7B7B",
"B  c #7B7B7B",
"V  c #7B7B7B",
"C  c #7B7B7B",
"Z  c #7B7B7B",
"A  c #7B7B7B",
"S  c #7B7B7B",
"D  c #7B7B7B",
"F  c #7B7B7B",
"G  c #7B7B7B",
"H  c #7B7B7B",
"J  c #7B7B7B",
"K  c #7B7B7B",
"L  c #7B7B7B",
"P  c #7B7B7B",
"I  c #7B7B7B",
"U  c #7B7B7B",
"Y  c #7B7B7B",
"T  c #7B7B7B",
"R  c #7B7B7B",
"E  c #7B7B7B",
"W  c #7B7B7B",
"Q  c #7B7B7B",
"!  c #7B7B7B",
"~  c #7B7B7B",
"^  c #7B7B7B",
"/  c #7B7B7B",
"(  c #7B7B7B",
")  c #7B7B7B",
"_  c #7B7B7B",
"`  c #7B7B7B",
"'  c #7B7B7B",
"]  c #7B7B7B",
"[  c #7B7B7B",
"{  c #7B7B7B",
"}  c #7B7B7B",
"|  c #7B7B7B",
" . c #7B7B7B",
".. c #7B7B7B",
"X. c #7B7B7B",
"o. c #7B7B7B",
"O. c #7B7B7B",
"+. c #7B7B7B",
"@. c #7B7B7B",
"#. c #7B7B7B",
"$. c #7B7B7B",
"%. c #7B7B7B",
"&. c #7B7B7B",
"*. c #7B7B7B",
"=. c #7B7B7B",
"-. c #7B7B7B",
";. c #7B7B7B",
":. c #7B7B7B",
">. c #7B7B7B",
",. c #7B7B7B",
"<. c #7B7B7B",
"1. c #7B7B7B",
"2. c #7B7B7B",
"3. c #7B7B7B",
"4. c #7B7B7B",
"5. c #7B7B7B",
"6. c #7B7B7B",
"7. c #7B7B7B",
"8. c #7B7B7B",
"9. c #7B7B7B",
"0. c #7B7B7B",
"q. c #7B7B7B",
"w. c #7B7B7B",
"e. c #7B7B7B",
"r. c #7B7B7B",
"t. c #7B7B7B",
"y. c #7B7B7B",
"u. c #7B7B7B",
"i. c #7B7B7B",
"p. c #7B7B7B",
"a. c #7B7B7B",
"s. c #7B7B7B",
"d. c #7B7B7B",
"f. c #7B7B7B",
"g. c #7B7B7B",
"h. c #7B7B7B",
"j. c #7B7B7B",
"k. c #7B7B7B",
"l. c #7B7B7B",
"z. c #7B7B7B",
"x. c #7B7B7B",
"c. c #7B7B7B",
"v. c #7B7B7B",
"b. c #7B7B7B",
"n. c #7B7B7B",
"m. c #7B7B7B",
"M. c #7B7B7B",
"N. c #7B7B7B",
"B. c #7B7B7B",
"V. c #7B7B7B",
"C. c #7B7B7B",
"Z. c #7B7B7B",
"A. c #7B7B7B",
"S. c #7B7B7B",
"D. c #7B7B7B",
"F. c #7B7B7B",
"G. c #7B7B7B",
"H. c #7B7B7B",
"J. c #7B7B7B",
"K. c #7B7B7B",
"L. c #7B7B7B",
"P. c #7B7B7B",
"I. c #7B7B7B",
"U. c #7B7B7B",
"Y. c #7B7B7B",
"T. c #7B7B7B",
"R. c #7B7B7B",
"E. c #7B7B7B",
"W. c #7B7B7B",
"Q. c #7B7B7B",
"!. c #7B7B7B",
"~. c #7B7B7B",
"^. c #7B7B7B",
"/. c #7B7B7B",
"(. c #7B7B7B",
"). c #7B7B7B",
"_. c #7B7B7B",
"`. c #7B7B7B",
"'. c #7B7B7B",
"]. c #7B7B7B",
"[. c #7B7B7B",
"{. c #7B7B7B",
"}. c #7B7B7B",
"|. c #7B7B7B",
" X c #7B7B7B",
".X c #7B7B7B",
"XX c #7B7B7B",
"oX c #7B7B7B",
"OX c #7B7B7B",
"+X c #7B7B7B",
"@X c #7B7B7B",
"#X c #7B7B7B",
"$X c #7B7B7B",
"%X c #7B7B7B",
"&X c #7B7B7B",
"*X c #7B7B7B",
"=X c #7B7B7B",
"-X c #7B7B7B",
";X c #7B7B7B",
":X c #7B7B7B",
">X c #7B7B7B",
",X c #7B7B7B",
"<X c #7B7B7B",
"1X c #7B7B7B",
"2X c #7B7B7B",
"3X c #7B7B7B",
"4X c #7B7B7B",
"5X c #7B7B7B",
"6X c #7B7B7B",
"7X c #7B7B7B",
"8X c #7B7B7B",
"9X c #7B7B7B",
"0X c #7B7B7B",
"qX c #7B7B7B",
"wX c #7B7B7B",
"eX c #7B7B7B",
"rX c #7B7B7B",
"tX c #7B7B7B",
"yX c #7B7B7B",
"uX c #7B7B7B",
"iX c #7B7B7B",
"pX c #7B7B7B",
"aX c #7B7B7B",
"sX c #7B7B7B",
"dX c #7B7B7B",
"fX c #7B7B7B",
"gX c #7B7B7B",
"hX c #7B7B7B",
"jX c #7B7B7B",
"kX c #7B7B7B",
"lX c #7B7B7B",
"zX c #6A4120",
"xX c #735A39",
"cX c #392918",
"vX c #5A4120",
"bX c #4A3929",
"nX c #5A4A31",
"mX c #4A3118",
"MX c #6A5241",
"NX c #4A3920",
"BX c #7B5229",
"VX c #524131",
"CX c #5A4129",
"ZX c #523929",
"AX c #625239",
"SX c #413120",
"DX c #625231",
"FX c #735A4A",
"GX c #412918",
"HX c #523918",
"JX c #835231",
"KX c #292008",
"LX c #413118",
"PX c #8B735A",
"IX c #7B624A",
"UX c #836A4A",
/* pixels */
"SXNXNXNXSXGXnXIXCXCXnXnXnXnXCXVXCXNXNXVXNXVXZXvXCXCXCXVXVXZXVXnXMXIXnXZXSXcXcXLXZXZXSXGXGXSXcXGXcXLXVXnXMXIXIXIXMXMXIXMXMXMXMXMX",
"MXSXGXGXNXnXMXMXVXnXnXnXnXCXnXCXVXNXNXCXVXVXCXvXCXCXCXCXCXNXVXMXMXMXMXMXnXVXSXcXGXcXGXGXSXGXGXcXNXLXVXCXNXCXCXVXNXMXMXMXMXnXMXMX",
"MXMXMXMXMXIXMXnXCXnXnXCXVXCXVXVXZXvXNXVXVXVXCXvXVXnXCXCXZXVXIXMXMXCXCXnXVXVXvXZXNXGXcXcXGXLXLXVXLXVXVXNXNXNXnXnXnXnXMXnXnXnXnXnX",
"CXMXMXMXMXIXnXnXCXnXCXCXCXCXCXCXZXNXNXVXVXVXVXZXVXCXZXSXVXIXMXCXCXVXNXNXvXVXZXvXnXVXNXSXLXVXVXLXnXnXnXnXCXnXnXZXCXCXvXvXnXnXvXvX",
"SXCXJXnXMXMXNXVXVXVXCXZXVXCXnXCXVXNXnXVXVXZXvXNXSXGXvXVXMXIXNXVXSXNXvXzXvXzXNXNXSXMXMXnXnXVXLXnXCXnXDXZXnXVXnXVXVXnXnXCXnXvXvXvX",
"vXnXCXMXMXMXNXCXCXVXVXVXCXCXnXCXVXVXCXCXZXNXNXGXGXVXMXMXIXnXVXvXNXNXzXvXNXvXSXGXSXMXIXMXVXLXVXZXvXnXvXvXvXvXvXvXvXvXvXvXnXvXnXvX",
"vXvXnXCXMXnXLXNXCXVXVXCXCXnXnXCXVXZXVXZXNXSXGXZXMXIXMXMXIXnXNXvXzXNXNXVXZXGXGXGXSXMXIXIXLXZXZXCXCXvXnXCXNXvXvXvXvXvXvXCXnXnXnXvX",
"vXvXnXvXCXMXnXLXNXCXVXCXCXnXnXCXVXZXNXLXGXZXCXMXIXMXVXVXMXIXnXvXNXNXNXvXSXGXGXSXVXMXIXMXLXCXvXvXvXvXnXvXvXvXCXvXvXvXvXnXvXCXCXvX",
"CXCXnXCXVXZXIXnXLXNXZXCXnXnXnXCXCXNXNXSXVXMXIXMXNXVXCXDXCXVXIXnXLXNXGXNXZXGXSXVXnXIXIXMXNXvXvXvXCXVXnXCXCXvXCXvXvXvXvXvXnXCXCXvX",
"CXvXvXCXCXVXIXIXnXLXVXCXCXCXCXvXvXSXnXMXIXIXCXCXCXCXCXCXDXDXNXIXnXLXLXLXLXLXVXnXIXIXIXMXZXvXvXvXVXvXvXCXnXCXCXCXvXvXCXvXCXCXCXCX",
"vXvXvXnXCXVXIXxXIXVXLXSXvXZXNXSXSXVXIXIXIXNXVXZXCXCXCXzXzXDXNXNXNXVXnXnXnXnXIXIXIXIXIXnXVXvXNXvXCXvXvXnXnXCXCXCXCXvXvXvXCXCXvXvX",
"vXNXCXCXNXvXxXxXMXMXMXVXSXSXSXVXMXMXIXIXNXVXZXNXvXNXzXzXzXCXDXDXCXvXzXzXSXNXnXMXIXIXIXnXVXvXvXvXvXNXCXnXvXvXCXVXNXvXCXCXvXvXvXvX",
"SXvXvXCXNXLXMXnXCXNXCXZXnXMXPXUXxXxXMXnXCXCXNXNXZXvXvXzXvXvXvXNXVXvXzXCXCXDXSXnXnXMXIXVXVXvXvXGXSXvXvXCXZXvXvXNXSXSXVXNXNXvXCXvX",
"CXvXvXNXcXVXMXCXGXZXNXZXNXnXIXUXxXxXnXCXDXCXNXNXZXNXvXCXVXVXVXNXVXvXCXvXNXCXDXSXVXMXIXnXVXvXSXNXCXvXvXvXZXSXSXSXGXvXSXNXNXNXvXvX",
"vXCXNXGXnXnXVXZXNXGXGXNXvXNXnXMXMXnXCXDXCXNXNXNXNXNXNXvXVXvXzXvXNXNXCXCXNXCXCXSXVXMXMXnXZXNXNXvXCXnXCXvXZXSXGXSXSXGXGXSXvXNXSXvX",
"CXvXGXnXMXMXZXZXZXZXZXCXNXGXSXMXMXVXSXCXCXSXSXNXNXNXNXNXVXNXNXvXNXNXVXvXNXSXCXSXnXMXMXnXNXSXvXvXCXvXvXvXZXSXGXZXvXvXNXCXNXGXSXvX",
"vXLXnXIXMXMXSXSXZXZXCXCXNXvXNXNXnXVXNXvXNXNXNXSXNXNXNXvXNXVXNXNXNXNXNXvXSXSXNXLXnXMXnXZXGXSXvXvXvXvXvXzXvXZXZXvXvXvXvXCXvXvXvXNX",
"LXnXnXCXSXCXVXLXZXCXCXvXNXZXCXnXnXVXNXZXvXNXvXNXNXNXvXNXNXVXNXNXNXNXNXvXvXSXLXnXnXVXVXLXSXLXvXvXvXvXvXzXZXZXZXvXvXCXnXvXvXNXNXNX",
"nXnXCXCXZXvXVXVXCXnXZXNXNXCXCXCXnXLXZXZXNXNXvXNXNXNXNXNXNXvXvXNXZXNXNXZXNXcXnXnXVXVXZXZXGXLXNXvXvXvXzXvXvXvXvXvXnXnXvXvXNXNXNXLX",
"nXvXZXNXCXZXNXnXNXNXvXvXNXCXCXCXnXVXZXZXvXNXCXvXvXNXNXNXCXNXvXSXvXZXNXNXcXnXnXVXVXVXCXnXVXLXLXNXvXvXvXvXVXvXvXvXCXvXvXvXNXNXLXnX",
"NXZXCXVXNXNXNXnXnXNXNXZXNXCXCXCXvXnXLXZXNXNXNXvXCXNXSXSXSXNXLXLXLXSXcXcXCXnXVXZXNXNXCXnXnXVXGXGXNXNXvXvXvXvXvXvXZXvXNXNXNXNXnXnX",
"ZXCXCXvXNXNXNXNXIXnXNXNXSXZXCXZXvXMXVXLXNXNXvXvXVXvXNXSXSXSXGXGXcXcXLXCXnXMXMXnXnXnXVXMXxXxXCXGXLXNXvXNXvXvXNXSXZXZXZXNXLXVXMXNX",
"CXCXvXvXvXNXZXSXnXDXNXNXNXZXZXZXZXnXnXLXSXNXvXvXvXNXNXSXNXSXGXGXNXNXnXZXZXZXZXCXCXNXnXnXxXPXxXnXGXLXNXNXvXvXZXSXNXZXNXNXnXMXNXZX",
"vXvXvXCXvXvXvXNXnXIXnXLXNXCXCXvXLXnXMXnXGXSXNXNXNXNXvXSXGXGXNXVXnXnXVXVXNXNXNXSXvXLXNXMXIXIXUXMXnXcXLXNXNXNXvXNXNXNXvXnXMXvXCXVX",
"NXNXNXNXNXvXvXVXNXDXIXnXNXNXCXVXLXnXMXnXnXGXSXvXvXNXLXGXSXVXnXMXnXZXVXVXSXLXSXSXvXvXNXZXMXIXIXMXMXVXcXLXSXNXvXvXNXvXnXMXnXnXCXVX",
"SXNXNXNXCXNXZXvXNXnXMXnXLXNXNXGXVXxXIXMXMXnXLXSXSXLXcXSXVXnXMXnXZXNXVXVXLXLXSXNXvXNXNXLXnXMXMXCXNXMXVXcXGXSXZXNXNXnXMXnXvXCXCXzX",
"NXNXZXNXNXvXNXCXNXZXnXDXnXLXGXVXxXMXMXMXMXIXNXLXcXcXNXnXMXMXMXZXNXNXVXVXNXNXLXNXGXGXNXNXVXMXnXNXNXNXMXVXLXcXSXSXnXMXCXNXZXvXCXCX",
"GXGXZXNXSXNXNXNXLXNXMXDXDXMXMXxXIXnXZXZXnXMXIXNXMXMXMXMXMXMXMXNXSXNXVXVXNXSXGXGXGXGXGXZXnXMXCXNXLXLXZXMXnXVXVXnXMXMXNXNXNXCXCXCX",
"GXGXGXNXNXNXSXNXNXVXIXMXxXxXxXMXnXZXVXVXVXCXMXIXIXIXMXMXMXMXMXnXLXLXVXVXSXcXLXGXGXGXNXNXnXnXNXvXLXLXNXCXMXMXMXMXMXMXCXNXvXvXCXCX",
"vXNXNXSXGXNXNXNXNXvXMXnXMXxXMXLXZXZXZXVXVXVXCXIXIXMXMXnXnXnXPXMXnXNXVXVXGXcXNXLXSXNXvXnXnXVXNXNXNXNXNXLXZXMXMXnXnXCXCXNXNXvXZXZX",
"NXGXCXNXSXLXNXNXGXZXMXMXnXnXMXVXLXVXVXVXVXVXvXMXMXMXZXVXCXZXSXPXnXnXCXCXSXGXNXvXNXNXLXMXMXMXVXVXVXVXVXVXVXMXMXVXCXNXZXSXSXZXZXZX",
"NXNXvXvXNXNXNXLXSXLXnXnXVXZXnXIXMXNXVXnXZXZXGXMXMXCXZXNXCXNXNXLXMXnXVXVXNXvXNXNXvXSXnXCXJXxXMXnXMXMXMXMXMXNXVXMXnXVXNXSXNXZXCXCX",
"NXvXvXvXLXSXNXNXLXCXnXnXCXDXCXnXIXMXVXNXGXGXNXnXZXZXNXNXCXNXNXNXSXMXnXMXNXNXNXSXNXcXMXnXnXMXVXZXVXCXCXCXVXNXVXCXVXnXNXNXvXVXVXvX",
"vXNXvXvXNXZXNXLXCXCXVXNXVXZXCXCXMXMXIXnXNXNXMXMXZXNXSXNXZXCXNXNXSXNXvXnXnXNXNXSXLXMXMXnXnXnXVXZXCXVXCXCXCXCXCXVXNXCXZXSXNXZXCXVX",
"vXNXvXVXNXNXNXnXVXMXZXVXZXZXCXCXCXMXIXUXMXMXMXCXCXNXNXNXVXCXNXNXSXGXzXnXnXMXnXnXnXnXnXMXVXnXVXZXCXVXCXnXCXVXCXVXZXnXZXNXNXNXvXCX",
"CXzXCXSXNXLXVXVXMXnXCXnXCXCXCXZXvXZXMXMXIXUXUXCXZXZXZXNXCXvXCXZXSXGXvXVXGXnXMXMXMXMXnXMXVXnXVXVXCXCXCXVXCXNXVXVXZXnXNXNXvXCXvXNX",
"VXvXNXNXvXZXnXMXIXMXMXnXZXCXZXvXzXvXCXnXIXPXIXvXZXZXZXCXZXCXNXSXLXLXNXNXGXGXnXMXMXIXnXMXVXnXVXVXnXCXVXnXCXGXVXCXCXnXNXvXNXzXNXzX",
"vXNXNXNXnXVXMXIXMXCXMXMXnXCXNXCXvXvXZXZXVXPXIXnXZXZXZXCXZXvXNXLXLXGXVXvXNXNXSXnXIXMXnXMXVXnXVXZXCXVXVXCXVXSXVXCXnXnXzXvXvXvXSXvX",
"NXNXNXCXVXnXMXnXnXMXMXMXMXnXZXCXZXZXNXZXZXVXMXxXZXZXZXCXZXvXNXNXNXNXNXNXNXSXcXnXIXMXnXMXVXMXVXVXVXVXCXCXVXZXVXVXnXMXIXDXvXZXNXvX",
"NXLXCXMXMXMXMXVXZXnXCXMXMXCXCXCXCXCXZXNXZXZXMXMXvXZXZXCXCXNXVXSXNXNXNXNXSXGXLXxXMXMXVXMXnXIXVXVXVXVXCXnXVXVXVXVXNXMXMXIXnXNXZXNX",
"NXnXnXMXMXMXnXNXZXCXCXCXnXCXCXZXCXZXCXLXZXZXVXMXnXLXZXNXZXZXvXZXZXZXNXSXSXcXZXIXnXnXnXMXIXMXVXVXCXCXVXZXVXVXVXZXNXnXIXMXMXCXZXLX",
"VXVXIXIXMXCXZXCXVXZXCXCXDXZXCXCXNXCXZXNXNXZXVXVXMXVXLXZXZXvXCXZXZXNXNXSXSXLXVXIXZXnXVXMXMXMXVXVXVXVXCXCXVXZXVXCXzXnXCXCXCXCXMXnX",
"VXVXMXIXxXZXVXZXCXnXnXCXZXZXCXVXGXZXZXNXLXZXCXCXVXMXVXcXZXNXvXvXNXNXSXSXcXNXnXIXnXVXVXnXMXnXCXnXVXCXCXCXVXVXCXVXCXnXLXCXnXVXvXZX",
"ZXCXMXUXMXCXCXCXnXDXnXNXNXZXCXNXVXZXZXNXNXZXZXCXCXVXMXLXLXNXNXNXNXNXSXGXcXvXMXMXnXVXVXVXMXVXCXCXCXCXCXnXCXCXCXCXNXMXLXVXZXVXGXcX",
"ZXNXvXIXCXZXZXZXnXDXDXNXNXNXZXCXZXNXCXNXNXNXZXZXZXNXMXVXLXLXNXNXSXLXSXGXSXnXIXMXNXCXVXVXnXVXVXCXCXVXCXnXCXZXVXVXNXMXLXCXCXVXKXSX",
"VXvXLXMXnXCXZXVXnXnXNXZXNXZXZXZXZXZXZXNXLXNXZXNXNXGXVXMXnXcXLXLXGXLXGXcXVXMXIXIXnXNXVXVXVXnXVXnXVXVXnXCXCXCXVXCXNXnXLXCXCXVXKXGX",
"CXLXnXnXCXCXZXCXZXZXNXVXZXZXZXZXZXNXCXvXNXNXZXGXLXnXnXMXMXVXLXcXLXNXGXGXVXMXMXMXMXnXLXNXVXCXVXnXVXVXVXCXCXCXVXCXNXnXLXCXnXCXGXGX",
"NXVXnXnXLXZXZXVXVXNXNXZXZXVXZXVXZXVXCXvXNXNXNXLXSXMXMXSXNXNXZXNXcXcXGXZXnXMXnXNXZXCXCXNXLXNXMXnXCXVXVXZXZXVXZXNXLXVXLXCXnXCXGXGX",
"nXnXMXMXnXNXCXVXVXZXZXVXVXCXVXCXZXvXCXCXNXNXNXNXMXVXSXNXNXNXNXnXNXNXZXnXMXVXVXVXVXVXCXnXVXLXNXCXCXNXVXCXCXCXNXLXnXCXLXLXLXLXcXVX",
"MXMXMXIXIXnXLXNXCXZXVXCXVXCXCXCXZXVXCXvXvXNXNXMXnXNXNXGXNXLXNXLXNXMXMXMXVXNXVXVXCXCXVXVXMXCXLXNXVXVXVXCXzXvXLXnXMXMXMXvXNXNXVXnX",
"MXMXIXIXIXIXnXLXNXNXVXCXCXCXnXnXVXvXCXNXNXNXMXMXvXZXNXSXNXLXNXLXNXSXMXMXVXNXVXVXCXCXNXNXCXnXnXGXLXZXZXvXvXNXVXZXnXNXZXCXCXnXIXIX",
"nXZXnXnXMXMXMXVXNXLXNXCXCXnXMXnXvXvXVXNXLXMXMXCXZXNXNXNXNXNXNXLXSXLXnXnXnXZXVXVXCXCXzXGXNXCXMXCXGXLXNXNXLXVXVXZXCXZXZXCXCXCXJXIX",
"ZXVXNXVXnXnXMXMXMXVXLXVXCXnXnXzXVXCXNXLXMXMXVXCXVXNXvXNXNXNXNXvXSXLXMXNXVXSXCXCXCXCXNXZXNXNXCXnXVXNXSXLXnXMXZXZXZXvXZXCXCXCXMXIX",
"VXZXZXZXVXCXnXnXMXMXVXVXCXnXCXzXZXNXLXMXvXVXCXNXvXvXNXSXNXNXvXNXSXnXVXGXNXNXVXVXCXDXNXZXNXSXSXCXMXnXCXCXMXnXvXvXNXZXZXCXCXCXMXIX",
"VXZXVXVXVXVXVXVXnXMXMXVXLXCXzXvXNXLXMXvXCXCXCXNXVXVXVXvXVXvXvXZXNXnXNXGXCXVXVXVXCXCXVXNXNXNXvXVXnXMXMXMXMXZXvXNXZXCXCXCXvXCXJXMX",
"CXVXVXVXVXCXCXZXVXnXMXMXVXNXLXLXNXMXzXZXVXZXNXvXVXCXCXNXvXvXvXNXVXnXNXvXvXvXvXvXVXVXVXNXZXNXNXVXNXnXMXIXnXCXCXZXZXZXCXvXVXCXnXnX",
"VXVXZXZXVXCXVXZXVXNXCXMXMXVXNXVXnXNXZXCXVXZXNXNXVXCXCXZXVXNXNXNXnXNXNXVXVXVXzXNXNXNXNXNXNXNXvXVXNXLXnXnXvXvXZXZXZXZXCXNXvXvXnXCX",
"CXZXCXZXCXVXCXZXVXNXCXvXMXMXMXnXzXZXNXZXVXNXNXvXVXCXCXvXVXNXNXVXvXGXvXVXCXNXvXVXCXvXzXGXNXZXvXCXNXvXNXnXVXLXvXZXZXZXvXvXVXJXMXVX",
"VXVXVXCXVXVXCXNXZXNXvXCXMXMXMXMXCXNXNXZXVXNXZXvXCXCXCXLXNXNXNXVXNXLXNXVXCXNXNXNXVXvXzXNXNXNXVXVXNXvXNXNXVXnXNXZXZXvXvXCXnXJXnXVX",
"VXVXVXCXVXVXCXvXNXvXNXvXMXIXMXCXVXNXNXCXVXNXNXVXVXCXDXCXvXVXNXVXSXNXvXVXCXVXVXvXNXNXNXNXNXNXVXVXVXNXvXSXVXVXNXvXvXVXCXVXnXMXCXCX",
"CXCXVXCXVXCXZXNXSXNXvXMXIXMXCXCXNXNXNXZXCXNXNXVXVXCXCXZXZXCXNXNXZXNXvXCXCXvXNXNXNXVXVXCXzXNXNXNXvXNXVXSXVXMXVXLXNXCXCXNXnXVXCXCX",
"nXCXVXVXCXCXNXNXNXNXIXMXMXCXCXCXVXNXNXZXVXNXNXVXvXVXVXNXvXCXNXGXLXNXVXVXCXVXNXVXCXVXvXVXNXVXVXVXLXVXVXGXVXIXMXnXZXNXNXnXnXCXCXCX",
"CXnXCXVXVXZXNXSXNXMXMXCXnXnXnXCXCXNXNXZXVXNXNXvXCXCXNXvXZXCXNXSXKXLXVXVXCXzXNXNXvXvXCXCXNXzXNXvXNXVXcXcXnXIXIXMXVXNXnXnXVXNXnXCX",
"CXCXCXVXZXSXSXZXIXMXnXnXnXnXnXCXnXvXNXZXNXNXNXvXvXNXZXNXZXCXVXnXVXSXGXLXLXGXNXNXVXvXvXNXNXNXNXNXZXcXGXLXMXIXIXMXMXMXMXIXMXnXCXNX"
};
