/* XPM */
static char *c0373042b7434bbff5bcca259ebc4699iReY0VQRkQIvITMb[] = {
/* columns rows colors chars-per-pixel */
"64 64 250 2 ",
"   c #010101",
".  c #090303",
"X  c #02020A",
"o  c #040804",
"O  c #593A14",
"+  c #663B16",
"@  c #66390D",
"#  c #5F3F28",
"$  c #6D451C",
"%  c #75491A",
"&  c #7B541F",
"*  c #5D4629",
"=  c #6A4422",
"-  c #6B4C24",
";  c #6C4C2A",
":  c #664A2A",
">  c #754C28",
",  c #695129",
"<  c #78552A",
"1  c #695538",
"2  c #785937",
"3  c #6F4C31",
"4  c #79613B",
"5  c #57451F",
"6  c #6A5A44",
"7  c #775A41",
"8  c #756344",
"9  c #7A664A",
"0  c #7C6C54",
"q  c #776653",
"w  c #7C7159",
"e  c #6C6343",
"r  c #7F7262",
"t  c #845928",
"y  c #855C38",
"u  c #86622C",
"i  c #8D6A3B",
"p  c #886438",
"a  c #966A39",
"s  c #987339",
"d  c #966B2E",
"f  c #A77A3C",
"g  c #A06E37",
"h  c #815E40",
"j  c #8C6C44",
"k  c #846847",
"l  c #956F44",
"z  c #8C734D",
"x  c #8C7843",
"c  c #947243",
"v  c #997543",
"b  c #99764A",
"n  c #826B52",
"m  c #887458",
"M  c #967A55",
"N  c #A67A48",
"B  c #A47954",
"V  c #8C7C64",
"C  c #857B69",
"Z  c #947D65",
"A  c #8F7F70",
"S  c #AA813C",
"D  c #9C8248",
"F  c #9A855A",
"G  c #A5844D",
"H  c #A88448",
"J  c #A38354",
"K  c #AB8C5C",
"L  c #A78758",
"P  c #B68A56",
"I  c #AC925D",
"U  c #B4945C",
"Y  c #B89556",
"T  c #B5884D",
"R  c #8D8269",
"E  c #94846C",
"W  c #998768",
"Q  c #978976",
"!  c #9B917A",
"~  c #968C6C",
"^  c #A78B65",
"/  c #AC936D",
"(  c #AA9567",
")  c #B3946B",
"_  c #BB9C6B",
"`  c #B69966",
"'  c #A48D74",
"]  c #AD9472",
"[  c #A5927B",
"{  c #A99778",
"}  c #B69C76",
"|  c #B38D65",
" . c #BBA26A",
".. c #BCA566",
"X. c #ABA37D",
"o. c #B8A578",
"O. c #AFA065",
"+. c #C39C5D",
"@. c #C19A69",
"#. c #C39E7A",
"$. c #C7A768",
"%. c #C6A878",
"&. c #D3AB7A",
"*. c #CBB477",
"=. c #D5B77A",
"-. c #D0B26A",
";. c #978E81",
":. c #9C9483",
">. c #9A9884",
",. c #959690",
"<. c #AB9C85",
"1. c #A49B8C",
"2. c #A99E8D",
"3. c #A39585",
"4. c #B99F85",
"5. c #A89C93",
"6. c #A28F80",
"7. c #ACA38D",
"8. c #A9A289",
"9. c #BCA483",
"0. c #B4A38B",
"q. c #B9A888",
"w. c #BCB28C",
"e. c #ACA594",
"r. c #AAA597",
"t. c #B3AB95",
"y. c #B3AD9B",
"u. c #BAA996",
"i. c #B9B298",
"p. c #AEACA1",
"a. c #B6AEA2",
"s. c #BBB3A3",
"d. c #BCBAAA",
"f. c #B9B5A7",
"g. c #BDBCB4",
"h. c #C5AB88",
"j. c #C8B586",
"k. c #D4B786",
"l. c #C4AC94",
"z. c #CCBB94",
"x. c #C4B39B",
"c. c #C7B899",
"v. c #D3BC9B",
"b. c #D3B996",
"n. c #CABCA5",
"m. c #C3BCAD",
"M. c #C6B8A6",
"N. c #C3BCB2",
"B. c #CABEB8",
"V. c #CFB5A4",
"C. c #BEC2B1",
"Z. c #D8C58B",
"A. c #D6C698",
"S. c #D0CA93",
"D. c #E3C686",
"F. c #E2CD98",
"G. c #CAC3A7",
"H. c #D5CBAC",
"J. c #D7C8A7",
"K. c #DCD2A9",
"L. c #CDC4B4",
"P. c #CCCAB3",
"I. c #CCC4BA",
"U. c #CCCBBB",
"Y. c #C4C4B8",
"T. c #DBCCB4",
"R. c #D2CCBB",
"E. c #DBCDBC",
"W. c #D4C7B5",
"Q. c #CDD0BB",
"!. c #DDD2B4",
"~. c #DCD4BD",
"^. c #D6D3B9",
"/. c #E6D8A9",
"(. c #E5D6B9",
"). c #E4CDAE",
"_. c #EAE5BB",
"`. c #F4E6B5",
"'. c #F6E7AB",
"]. c #C9BDC1",
"[. c #CBCCC3",
"{. c #C8C5C2",
"}. c #D4CDC2",
"|. c #DACBC5",
" X c #CDD1C3",
".X c #D5D2C2",
"XX c #DCD4C4",
"oX c #DDDAC5",
"OX c #D5D4CC",
"+X c #DAD5CB",
"@X c #DCDCCC",
"#X c #D5D9C9",
"$X c #DCDBD4",
"%X c #D8D9D4",
"&X c #CED1D6",
"*X c #E5DBC3",
"=X c #E2DCCB",
"-X c #EADBCC",
";X c #E7D7C5",
":X c #E3DDD3",
">X c #E7DCD9",
",X c #F7DCC1",
"<X c #DEE4C9",
"1X c #DDE3D9",
"2X c #E4E2CC",
"3X c #E9E3C8",
"4X c #F5E6C9",
"5X c #E4E3D4",
"6X c #EBE4D4",
"7X c #ECE9D4",
"8X c #E4E4DC",
"9X c #EBE5DC",
"0X c #ECEBDC",
"qX c #E5EAD9",
"wX c #F1EBD4",
"eX c #F3ECDC",
"rX c #F5E9D9",
"tX c #EDF3D7",
"yX c #F9F4DA",
"uX c #E5E6E2",
"iX c #EBEBE4",
"pX c #ECECEB",
"aX c #E7E8E4",
"sX c #F3ECE3",
"dX c #F5EBE8",
"fX c #ECF2E4",
"gX c #ECF2EB",
"hX c #E8F3E7",
"jX c #F4F2E5",
"kX c #FAF3E4",
"lX c #F4F3EC",
"zX c #F9F4EB",
"xX c #F3FAEC",
"cX c #FCFBEC",
"vX c #F6FBE4",
"bX c #F6EEF2",
"nX c #F5F5F3",
"mX c #FAF6F3",
"MX c #F6FAF3",
"NX c #FBFBF5",
"BX c #F6F6F9",
"VX c #FAF6FA",
"CX c #F4FBFC",
"ZX c #FDFDFA",
"AX c gray99",
"SX c #FDFDFD",
"DX c #FDFDFE",
"FX c #FCFCFB",
"GX c #EAF4F5",
"HX c #EEDDE5",
/* pixels */
"                                                  X       X           X                                                         ",
"                                                  X X   o X X     X                                                             ",
"                                              . X X         X X X X           o                                                 ",
"                                                    . X X X     o           X X                                                 ",
"                                                  .     .       X X       o                                                     ",
"                                              . .   o           .   X X       o                                                 ",
"SXSXSXSXSXSXSXSXSXSXSXSXSXSXSXSXFXMXFXSXMXNXSXNXv.(.NXSXDXx.( S.( /.H.kXNXNXI.kXNXNXNXFXFXDXDXDXSXSXSXSXSXSXSXSXSXSXSXSXSXSXSXSX",
"SXSXSXSXSXSXSXSXSXSXSXSXSXSXFXFXNXMXZXNXMXFXmXOX> L K.(.9.i D.=.Y k./.A.J.S.Z.*.NXNXNXNXFXFXFXDXSXSXSXSXSXSXSXSXSXSXSXSXSXSXSXSX",
"SXSXSXSXSXSXSXSXSXSXFXFXFXFXFXFXNXNXMXCXCXNXv.@ + > a u u U Y +.F.9.A.Z.-.*.%.T @.4XcXnXAXFXFXFXSXSXFXFXSXSXSXSXSXSXSXSXSXFXFXSX",
"SXSXSXSXSXSXSXSXFXFXSXFXFXFXFXFXNXFXNXNXFX5Xr 4.= < % & t N t P D.Z./.*.$...I D h.0.xXSXnXFXFXNXSXSXSXSXSXSXSXSXSXSXSXSXSXSXFXSX",
"SXSXSXSXSXSXSXSXSXSXSXSXFXFXNXNXMXNXmXNXcXzXaXVXk = > $ t N p a $.S.J.k.+.P N @.cX5XnXFXFXmXmXNXFXFXSXSXSXSXSXFXSXSXSXSXSXSXSXSX",
"SXSXSXSXSXSXSXFXSXSXSXFXFXNXNXNXcXnXSXBXFXxXFXSXW.3 + % < u G G &./.S.%.&.c M 6XSXFXFXNXmXNXmXSXFXFXFXSXSXSXSXSXSXSXSXSXSXSXSXSX",
"SXSXSXSXSXSXFXFXSXSXFXFXFXFXNXNXFXlXZXNXaXFXlXlXFX;X2 + t d H $.k.Z.Z.$.Y o.kXCXnXFXNXzXNXFXNXnXNXNXFXFXAXAXFXSXSXSXSXSXSXSXSXSX",
"SXSXFXFXSXSXSXSXFXFXFXFXNXNXNXNXFXMXNX@X:.g.NXMXCXNX1 - t d H +.k.k.Z.-.S _ cXFXNXlX:X+XNXMXMXNXNXNXFXFXFXAXFXFXSXSXSXSXSXSXSXSX",
"SXSXSXSXSXSXSXSXFXFXFXFXNXFXFXFXeXjXNXaX@Xm.@XMXgXeXk + < < i v G @.Y f N l.FXnXlX5XzX9XlXNXjXkXFXFXFXNXNXFXFXZXAXAXSXSXSXSXAXSX",
"SXSXSXSXSXSXSXSXNXNXFXNXNXFXFXFXA.4XFXCXFXQ.=X}.2.{ y + i | h.)._.,X/.*.y M.gXL.OX8XcXFXNXcX7X!.FXFXFXNXNXFXFXSXAXAXSXSXSXSXAXAX",
"SXSXFXSXAXFXSXFXcXAXFXxXjXwXyXzX~.cXxX0X3Xc.!.M.7.<.0.i.U.#X$X5X0XqXfXxXhXfXeX;X-X#XfXzX5XpXFX/.NX7X9XVXmXMXSXNXSXSXSXSXSXSXSXSX",
"SXSXFXSXAXSXFXFXNXFXjXVXSXoXH.-X3X4Xu.B.+Xi.c.q.V.x.m.Q.G.J.J.v.J.(.(.3XwXeXaXuX5X^.^.E.yX+X6X4X*XF._.AXNXjXDXNXFXSXSXSXSXSXSXSX",
"SXSXFXFXAXAXFXFXMXnXFXNXFXNX3XA.h.U _ x.s.X.o.w.M.n.G.h.K v p 7 4 4 c ) b.(.7XfXgX2Xi.x.).H.!.J.A.*XNXMXMXFXmXSXFXFXSXSXSXSXFXFX",
"SXSXFXFXFXAXFXFXCXNXcXVXSX3Xc.T.U d G o.( } w.m.G.q.M y y n m R E m 9 ; : z h.(.9XpXiXG.o.j.A.Z.Z.A.7XFXxXcXNXAXFXFXFXSXSXSXFXSX",
"SXSXSXSXSXSXFXNXAXNXMXNX2XJ.4X;XL F ( } ] u.u.M.| p k [ m.Y.U.^..XR.R.u.E 1 < L K.dXnX=Xo.U -.=.3X_.K.wXNXBXFXMXFXFXFXFXSXSXSXSX",
"SXSXSXSXSXSXFXNXNXBXCXjXA.z.;Xi.} ^ o.M u.s.c.J M 0.[.%X%X$X5X>X6X5X$X%X+XM.Z : j c.2XxXW.K G k.2XHX;X(.FXAXnXNXFXFXFXFXFXSXSXSX",
"SXFXSXSXSXFXFXNXFXNXuXN.X.c.n.} J %.M { i.c.F M Y.OX%X1X0XeX9XbXzXsXiXiX8X5XXXe.1 4 z.7XlXJ.L h.S.w.W.sXjXNXMXAXNXNXFXFXFXFXSXSX",
"SXFXSXSXSXFXFXNXxXSX].t.w.W.M.L Y i ' 8.c.L ^ |.$X9XsXsXiXgXlXjXpXmXjXjXjXsXiX$Xu.7 2 J.iXeXh.` k.-Xf.2XpXVXzXNXNXNXFXFXFXFXSXSX",
"FXVXSXAXSXnXZXFXNX$X5.s.B.XXu.M | i 7.w._ W ^.1X>X>X:X-XyXeXwXeXyXsXFXNXzXwXG.0X=Xs.7 b ).iX9X} _ !.V..XhXbXlXNXNXNXFXFXFXSXSXFX",
"nXSXVXSXBXNXSXVXNXr.Q s.L.~.} M j F 0.9.^ n.@X+Xv.z ; t H *.D.Z./ b l x.cX(.H.sX9X@X3.; } 5XxXz.I 9.l.oXaXdXiXFXNXFXBXDXSXFXFXSX",
"NXZXSXBXSXnX$XOXY.s.:.y.R.i.^ i j ! 0.) q.:X$Xf.W ' n % f =.'.v.B.v.P > ^ A.K.jXsX0X Xn y H.hX~.I L 9.<XeXsX1X9XnXSXmXFXFXFXFXFX",
"SXFXAXSXlXy.8.2.e.e.1.e.m.0.p % m 3.h./ ~.$X:XN.y.m.3.; H =.`.7XpXaX3Xh.l } 3XjXjX0X8Xi.< } qXfXb.+.q.1XwX6X1X6X9XiX9XnXSXSXFXZX",
"FXSXSXNXm.R E W 2.1.t.e.m.M.2 < A <.) 9.$X:X:X%XXXU.5.- f D.`.6XyXtXtX-XW.7XjXmXxXkXaXU.z p E.gXl.H i.aXwX9X1X:X=X7X7XjXFXBXSXSX",
"DXDXBXFXf.0 ! m q Q 3.e.s.i.z 2 ;.9.( H.uX6X>X8X:XU.1.< f =.`.wX6Xz.A.eXlXfXjXzXcXkXsX5X8.< v.gXH.v L.uX=X9XU.a.e.t.d.6XFXAXSXnX",
"FXSXAXFXjXQ 0 [ w 8 m 7.y.M.W 2 E }  .oX+XXX+X@XoXP.8.$ s =./.wX$X{ v.eXzXkXjXvX5X8X5X9Xd.2 } aXL.x U.>X:X}.0.1.XXy.>.5XSXDXAXFX",
"FXnXSXAXFX6X5.e.! n 1 V t.M.E 2 E 9.q.oXT.wXpX=X|..X1.; s &.`.3XkXyXfXMXjXsXmX<X0XxXyX=X Xk J iX}.F U.8X=Xe.] ;XdX:XU.mXVXSXSXNX",
"SXFXSXFXFXMXaX{.a.R , 1 6.s.' 2 ~ } 4.c.+XpXaXqX.XY.2.> g -.'.A.%.x.kXvXkXmXjX3XGXjX3X@Xc.N b 2X~.~ ~.>XN.( z.9XpXnXSXSXFXSXSXFX",
"SXSXSXNXgXnXpX$X0.z p - m r.! 8 A } U *.A.!.W.:XW.U.8.: s -.'.l.] 3 0.yXeXdXxX~.fXH.b.J.%.a j 3XoX<.P.^.^ -.*.oXlXnXFXFXFXFXFXFX",
"SXSXSXFXpXnXpX%X<.2 l i 1 ! 1.e C } G L z o.J.W.R.C.1.3 g -./.;X(.] q.wX6XjXjX>X.Xb.#.) M i z ;XJ.7..XM.K $.` (.NXNXFXAXSXFXDXDX",
"SXFXSXNXpXgXaXOXm.' z , 8 m ~ 8 0 ^ ` q.u.0.c.^..XY.>.= d $.F.^.E.0.n.XXW.0.~.dXQ.i.l.H.w.z W =Xn.2.m.w.o.) ).mXlXlXlXnXnXSXSXSX",
"SXFXSXnXuXuXaX%Xg.1.0 1 1 0 ~ 8 6 J _ { M.c.G.[.I.p.;.5 u +.j.K.XX}.@X+Xq.o.H.>X=XR.2X2Xx./ q.J.t.<.l.{ q.;XdXpX8XuXaXaXpXFXSXFX",
"SXFXSXnXpXaXpXuX:.Q 0.[ V 6 w 6 i H U ] 0.x.c.d.N.p.Q , v =.k.z.E.XX+X^.A.b.H.>XE.G.^.w.o._ _ k.X.' 9.c.P.iX X<XaXpXpXpXnXFXSXFX",
"SXFXFXFXFXnXlXpXy.C E Q V 0 q 1 u G K } q.h.w.M.C.t.n y b J k.K.`.4X(./.z.T.@XiXW.c.z.)  .$.D U { ] ] X.w.y.7XhXmXNXNXnXFXSXSXSX",
"FXSXFXSXFXFXnXFXR.;.1.! m 4 k , : 2 b ..O.] M.U.s.W b < ; 3 - c I %.&. .z.:XuX8X@Xx.#.@.Y -. . .` L c.L.rXu.=XFXNXNXNXFXFXFXSXSX",
"SXAXSXAXFXFXnXnXGX$XN.E ~ 0 * ; O p ` k._ ( c.B.' n Q V m q q 6 4 0 ~ y.$X5X2X6X+Xj.| &.=.*.%...D q.XX@X0XiXpXcXNXNXNXNXFXSXSXSX",
"SXFXAXAXFXFXnXnXpX$XI.Q V 0 z 2 > a t N U  .( x.y.>.:.8.3.! :.:.5.y.I.OX8XaX>XOXv. .%.k.....U U ( (.L.}.zXmXNXxXNXNXNXNXFXSXSXSX",
"SXSXAXSXFXFXFXnXpXuXOXe.C 0 V 2 p G & u v *.Z.} f.N.N.d.f.f.d.d.Y.R.+X>X2X5X:XG.@.=.*.A.F.$.$.c F i.m.+XjXmXFXMXMXNXNXFXFXSXSXSX",
"SXSXAXAXAXFXFXFXlXlXOXY.>.C q 1 O - c - j D Z.A.q.x.B.B.{.{.I.}.OX#X$X%X2X~.x.( N =._ ( _ =.%.z Z Q }.0XlXnXBXNXNXNXNXFXSXSXSXSX",
"SXSXSXSXSXSXFXFXjXsX%XOXN.e.C q : < > + $ u G %.%.} 0.|.{.OX}.XX.X$XuX%XOXG.^ J s L %.L B P _ } u.I.>XjXNXnXNXxXFXFXFXFXDXSXSXFX",
"SXSXSXSXSXSXFXFX(.5XaX%X[.Y.t.R : 2 $ > $ % d a s I 9.W.R..XoXi.z.-XoX2XL.W d N ` p < b b i D A.@XjXiXlXnXNXsX3XFXFXFXAXSXSXSXSX",
"SXSXSXSXSXSXAXFXG.2XjX1XOXU.d.>.9 ; O < = + @ p v b } ] m M z.M *.Z.( o./ 4 v P b c s < z W o.T.qXaXbXNXgXNX2XK.FXFXFXAXSXSXSXSX",
"SXSXSXSXSXFXFXFXK.wXjXpX8X+XI.p.Q q , : * 2 2 3 3 y y < < + p | k.@.i y l j k < h j L L 6.s.^.:XhXlXFXnXNXNXwXK.FXFXAXAXSXSXSXSX",
"FXZXFXNXSXSXBXSX>X$.$.j.K.1X[.m.p.E 8 * * 7 k 1 # : 2 = > = > L $.%., ; k 8 e 6 8 z j ^ 0.U.$XiXsXVXbXK.!.(./.7XSXAXSXFXSXAXFXFX",
"FXSXSXFXAXSXSXNX| ^ oXV.b.XX%X[.N.:.n 1 1 0 n 9 q 9 9 : : 2 $ v %._ p 2 E Q R 0 C m k / z.n.0XpXiXnXR.o.!.-Xz._.FXSXSXFXSXFXSXFX",
"FXSXSXSXSXFXNX}.a T.GXQ B ~.%X&XB.5.m i k C C V Q Q E w 8 1 < H k.) M <.r.5.1.:.r.6.n z %.z.:XnXlXNXL.^ H.NXG.j.jXFXDXAXSXFXFXDX",
"SXSXFXFXFXFXNXs.N q.aXW.' #X#X|.Y.<.< N M 8.r.r.a.L.d.1.C 1 p H k.^ 2.p.m.L.}.[.}.f.<.4 _ %.!.lXwX@X%XM.cXnX{ N 3XNXAXFXZXNXFXDX",
"SXSXFXFXFXFXNXs.S %.:XB.Q P.j.%.x.M s M [ Q r.p.s.L.L.s.;.m - N @.o.i.e.E 8.#XaX5X5Xy.V M k.).*X9.J.mXsXgXiXM f *XNXAXSXZXNXFXDX",
"FXSXSXSXSXFXNX}.L =.G.m.E F D _ J s ) y.,.C m ! C E Q [ [ m 2 P K ^ w.' 0 w >.x.P.P.U.M.[ ] F.F v =.A.*XMX;Xs Y 7XNXDXSXZXNXFXSX",
"FXSXSXFXAXSXSXNXZ &.q.{ u u N L s ^ n.[.g.1.E V m M M z m 8 8 b K / M M M W } 8.d..X+XOXm.~ L N u H Y v.7X] S j.NXFXFXFXSXFXSXFX",
"FXZXFXNXSXSXBXSX>Xb ) ^ a < i t M n.OXR.E.m.f.>.m p J L F M k M J o.q.X.` J } G.$X:XiX$XU.W./ a ` d s h.T.` Y 6XSXFXNXNXSXDXFXNX",
"SXSXSXSXSXSXSXSXDXW.Z B & $ $ b ^.eXG.~.G.i.P.y.i M n.n.s.0.M F b l.E.W.(.l./ ).5X7XP.~.!.G.4Xt.G K U $.$.o.-XFXFXFXFXFXSXSXSXSX",
"                X X     .       X               .   X X X X     o   X X X o   . X X         .           o   X X                 ",
"                        X X X   X X X X X   X     o   o o   o   o   X   o     X X X X X X X   X   X X X X   .                   ",
"                      X X     o   o     o   o   X             X   .           X   o     .   o   o o X X                         ",
"                X X X X   o           X X     o     X X X X         X X X   X         X X             o   o   X                 ",
"                                        X       o                     X     o       X X X X     X X       o                     ",
"                o           X X                   X   X X   X   X       X X                 o   X X X                           ",
"                    X X   o   o X   o       X X X         o   X X   o           X             X         X                       "
};
