/* XPM */
static char *a3ca008a1cae497dc1bf247983af501bMNmQUH4i9r7PR9JL[] = {
/* columns rows colors chars-per-pixel */
"64 64 5 1 ",
"  c #FD3EFB",
". c black",
"X c #D835D6",
"o c #230923",
"O c #390E38",
/* pixels */
"                               Xo...............................",
"                               Xo...............................",
"                               Xo...............................",
"                               Xo...............................",
"                               Xo...............................",
"                               Xo...............................",
"                               Xo...............................",
"                               Xo...............................",
"                               Xo...............................",
"                               Xo...............................",
"                               Xo...............................",
"                               Xo...............................",
"                               Xo...............................",
"                               Xo...............................",
"                               Xo...............................",
"                               Xo...............................",
"                               Xo...............................",
"                               Xo...............................",
"                               Xo...............................",
"                               Xo...............................",
"                               Xo...............................",
"                               Xo...............................",
"                               Xo...............................",
"                               Xo...............................",
"                               Xo...............................",
"                               Xo...............................",
"                               Xo...............................",
"                               Xo...............................",
"                               Xo...............................",
"                               Xo...............................",
"                               Xo...............................",
"XXXXXXXXXXXXXXXXXXXXXXXXXXXXXXXXOooooooooooooooooooooooooooooooo",
"oooooooooooooooooooooooooooooooOXXXXXXXXXXXXXXXXXXXXXXXXXXXXXXXX",
"...............................oX                               ",
"...............................oX                               ",
"...............................oX                               ",
"...............................oX                               ",
"...............................oX                               ",
"...............................oX                               ",
"...............................oX                               ",
"...............................oX                               ",
"...............................oX                               ",
"...............................oX                               ",
"...............................oX                               ",
"...............................oX                               ",
"...............................oX                               ",
"...............................oX                               ",
"...............................oX                               ",
"...............................oX                               ",
"...............................oX                               ",
"...............................oX                               ",
"...............................oX                               ",
"...............................oX                               ",
"...............................oX                               ",
"...............................oX                               ",
"...............................oX                               ",
"...............................oX                               ",
"...............................oX                               ",
"...............................oX                               ",
"...............................oX                               ",
"...............................oX                               ",
"...............................oX                               ",
"...............................oX                               ",
"...............................oX                               "
};
