/* XPM */
static char *e98f6c3299454d60c7ff7cf7f050f543S0DlsyoONmGc3NXl[] = {
/* columns rows colors chars-per-pixel */
"64 64 249 2 ",
"   c #57391A",
".  c #4A341A",
"X  c #573C22",
"o  c #4D3C23",
"O  c #633C11",
"+  c #61401F",
"@  c #584329",
"#  c #5C4B35",
"$  c #674826",
"%  c #6E512D",
"&  c #654C33",
"*  c #695439",
"=  c #795D3D",
"-  c #755735",
";  c #775429",
":  c #7E623E",
">  c #6B5944",
",  c #745E48",
"<  c #75624C",
"1  c #7B654A",
"2  c #7D6444",
"3  c #7A6A56",
"4  c #7F725E",
"5  c #7F7764",
"6  c #825E39",
"7  c #815F2F",
"8  c #87653C",
"9  c #846C4D",
"0  c #866946",
"q  c #8F734C",
"w  c #826D55",
"e  c #876E56",
"r  c #8B7353",
"t  c #84735C",
"y  c #89745A",
"u  c #937452",
"i  c #937956",
"p  c #937C5C",
"a  c #967858",
"s  c #96774D",
"d  c #887964",
"f  c #937D63",
"g  c #967F6D",
"h  c #9A845E",
"j  c #A3835B",
"k  c #B5925E",
"l  c #9C8462",
"z  c #94836C",
"x  c #9B846B",
"c  c #9E8A6C",
"v  c #988564",
"b  c #9B8B73",
"n  c #9C8D7A",
"m  c #948874",
"M  c #9E927A",
"N  c #8C826F",
"B  c #A48D6D",
"V  c #A58864",
"C  c #A8936B",
"Z  c #B3936D",
"A  c #A28D74",
"S  c #A48D78",
"D  c #A59173",
"F  c #A4937B",
"G  c #AA957B",
"H  c #AC9A7B",
"J  c #A99676",
"K  c #B39C7D",
"L  c #B59976",
"P  c #ACA27E",
"I  c #BAA47C",
"U  c #C5A87B",
"Y  c #9D9284",
"T  c #9A9487",
"R  c #938F83",
"E  c #A39582",
"W  c #A99682",
"Q  c #AB9B84",
"!  c #A59B8C",
"~  c #AC9D8A",
"^  c #A49887",
"/  c #B29C83",
"(  c #BB9D83",
")  c #A89E94",
"_  c #ADA28D",
"`  c #AEA284",
"'  c #B5A585",
"]  c #BBA484",
"[  c #B5A48C",
"{  c #BAA58C",
"}  c #B6A98C",
"|  c #BBAC8C",
" . c #B9AA84",
".. c #AEA392",
"X. c #ADA598",
"o. c #B4A593",
"O. c #B5AB95",
"+. c #BBAB93",
"@. c #B5AB9B",
"#. c #BCAC9A",
"$. c #B5A798",
"%. c #BDB29D",
"&. c #BBB191",
"*. c #BAB08E",
"=. c #B7ADA2",
"-. c #BCB3A3",
";. c #BDB4A9",
":. c #C2AC8C",
">. c #C6AB85",
",. c #CBB38D",
"<. c #C7B58A",
"1. c #D4BA89",
"2. c #C3AD91",
"3. c #C1AF9C",
"4. c #C3B395",
"5. c #CBB393",
"6. c #CDBB94",
"7. c #C4B39B",
"8. c #CBB69B",
"9. c #CCBB9C",
"0. c #C4BB9C",
"q. c #D2BC95",
"w. c #D6BD9B",
"e. c #C3B4A3",
"r. c #C4BAA5",
"t. c #CCBCA4",
"y. c #C5BBAC",
"u. c #CABDAC",
"i. c #C4B6A8",
"p. c #D2BFA4",
"a. c #D1BFAB",
"s. c #C3BCB3",
"d. c #CABEB3",
"f. c #C6BFBB",
"g. c #D8C39A",
"h. c #CAC29C",
"j. c #CDC2A5",
"k. c #CCC1AD",
"l. c #C7C0AB",
"z. c #D5C3A4",
"x. c #DDCBA3",
"c. c #D3C3AC",
"v. c #D5C9AD",
"b. c #DBCCAC",
"n. c #DAC5A6",
"m. c #CCC3B4",
"M. c #CCC5BB",
"N. c #CEC8BB",
"B. c #C6C0B4",
"V. c #D2C4B3",
"C. c #D4CBB4",
"Z. c #DCCCB4",
"A. c #D2C5B9",
"S. c #D4CBBC",
"D. c #DBCDBC",
"F. c #D8C6B6",
"G. c #DDD2B6",
"H. c #DDD3BD",
"J. c #DFD8BD",
"K. c #D6D1BA",
"L. c #E3CDA8",
"P. c #E6D4AB",
"I. c #E1CEB5",
"U. c #E4D2B5",
"Y. c #E3D2BB",
"T. c #E9D9B7",
"R. c #F0DDB5",
"E. c #F3E4BB",
"W. c #EBE2B9",
"Q. c #E0CC99",
"!. c #CECAC1",
"~. c #CCC4C1",
"^. c #D4CCC2",
"/. c #D9CEC4",
"(. c #D6CFCA",
"). c #D6D2C4",
"_. c #DBD3C4",
"`. c #D6D2CA",
"'. c #DCD4CB",
"]. c #DED9CA",
"[. c #DFD8C6",
"{. c #DCD6D3",
"}. c #DDDAD4",
"|. c #DAD8D6",
" X c #E3D4C3",
".X c #E4DAC4",
"XX c #EBDBC5",
"oX c #E2D6CB",
"OX c #E3DBCC",
"+X c #EBDECC",
"@X c #E8D7C7",
"#X c #E4DCD3",
"$X c #EADDD4",
"%X c #E3DEDB",
"&X c #E6DBD8",
"*X c #F0DECC",
"=X c #EBE1CC",
"-X c #E8E2CA",
";X c #F5E7CA",
":X c #E5E1D4",
">X c #EBE3D4",
",X c #E5E2DB",
"<X c #EBE4DB",
"1X c #EDE9DC",
"2X c #EDE8D3",
"3X c #F3E5D5",
"4X c #F4EAD4",
"5X c #F1E6DB",
"6X c #F3EBDC",
"7X c #F9ECDB",
"8X c #F9EAD4",
"9X c #FDF2DC",
"0X c #FBF4D7",
"qX c #F9F0CF",
"wX c #DDDEE0",
"eX c #E5E3E3",
"rX c #EAE5E4",
"tX c #ECEAE5",
"yX c #EBE7E9",
"uX c #EDEAEA",
"iX c #E5E9EA",
"pX c #F1E7E3",
"aX c #F3ECE4",
"sX c #FAEDE4",
"dX c #F2EDEB",
"fX c #F9EEE9",
"gX c #EEF1E8",
"hX c #F4F1E6",
"jX c #FBF3E4",
"kX c #FFF9E4",
"lX c #F5F1EC",
"zX c #FAF4EB",
"xX c #FDFAEC",
"cX c #EBEEF1",
"vX c #F1EEF0",
"bX c #EDF1F1",
"nX c #F6F3F2",
"mX c #FAF5F4",
"MX c #FEFAF1",
"NX c #FEF9F6",
"BX c #FDFAF4",
"VX c #FCF6FA",
"CX c #FFFAFA",
"ZX c #FFF9F9",
"AX c #FDFDF9",
"SX c #FFFAFC",
"DX c #FFFAFD",
"FX c #FDFBFB",
"GX c #F7F7F6",
/* pixels */
"mXmXmXmXmXmXmXmXnXmXmXmXmXmXmXmXmXSXmXVXlXZXmXZXVXSXVXVXSXmXZXVXDXGXGXmXGXVXGXFXGXBXNXnXDXZXmXBXBXBXZXZXSXZXZXZXZXZXAXAXAXAXAXAX",
"mXmXmXmXmXmXmXmXVXmXnXnXmXBXBXZXZXmXSXmXBXmXZXmXnXDXVXDXmXVXmXVXGXZXmXFXFXFXDXGXnXAXBXAXmXDXBXBXBXBXVXZXZXZXZXZXZXZXZXAXAXAXAXAX",
"mXmXmXmXmXmXmXmXnXmXmXBXmXmXnXmXmXSXnXVXmXBXlXZXZXnXmXVXVXzXBXBXmXmXmXmXZXnXnXDXFXFXGXnXZXmXBXBXZXZXZXZXZXZXZXZXSXSXZXZXZXAXZXAX",
"nXnXnXnXmXmXmXmXmXmXmXmXmXmXmXZXVXnXZXZXmXMXBXmXZXmXAXmXAXnXBXlXMXxXNXmXBXNXzXmXmXGXmXDXZXAXBXZXZXZXZXZXZXZXSXZXSXSXZXZXZXZXZXZX",
"nXnXnXnXnXmXmXmXGXGXnXGXGXnXnXmXmXmXmXMXzXxXMXMXzXBXuXlXBXnXlXMXxXlXzXMXlXzXMXMXmXnXSXBXzXMXBXVXBXBXZXZXZXZXSXSXSXSXSXSXZXZXZXZX",
"nXnXnXnXnXmXmXmXnXGXBXmXnXnXmXMXaX<X>X6X[.1XjXzXaX,XtXlXnXzXnX!.^.xXzXmXzX#X1XaXmXVXdX#XzXzXaXrXAXAXZXZXZXZXZXDXSXSXSXSXZXZXZXZX",
"nXnXnXnXnXmXGXGXnXmXmXnXnXmXBXxX=Xr..X-XC.K.kX2XOX#XxXzXmXMXMXR R 6XMXdXmXaX<X5XsXzXS.OX6XkX-X>XMXBXBXBXBXBXZXZXSXSXSXSXZXZXZXZX",
"nXnXnXnXnXmXGXGXmXmXnXmXBXzX].y.r.j.G..X4XJ..X4X[.:X<XzXxXzXsX-._.6XMXmXzX<XoX$XjXH.O.J.G..X9XjX1XaXzXMXNXZXAXAXAXSXSXSXZXZXZXZX",
"vXnXmXdXnXmXlXBXmXlXlX'.zXzX'.^ Q &.j.j.G.qXJ..XH.2X+X9X+X7X7.W qX.X6X5XaX<X&X/.=X0.0.h.j.H.H.K.OX6XzXxX#XlXNXBXFXFXZXAXZXZXZXZX",
"dXdXnXvXnXnXlXmXdXMXS.T sX7X3XXX+.c } | &.C.4XJ.c.=XkX9Xp.9.D | qXW.0.k.zXzXoXF.Z.' U.h.v.C.j..XkXkXkXjXR `.AXBXAXFXFXBXZXZXZXAX",
"nXnXdXvXlXnXmXlXMXaX<X+X3X3XXXZ.U.T.U.Y.0.M _ H.H.+XU.;XC j q q.E.g.I ' xX$X@X X7.P 6.| b.8X9X8X4X9X9XkXkX6XxXNXBXAXAXBXFXAXAXZX",
"nXnXdXnXlXlXmX<X1X1X+X@XD.4.G x f c 2.T.kXV.< m 4XT.z.] 8 8 7 U Q.<.C v z.XX*Xv.' P <.R.T.c.4./ G H 7.T.xXkXzXzXlXmXNXAXZXAXAXZX",
"dXnXdXnXlXlXtX`.jX>XH.U.p.l 9 - & X w f v.kX3XN d o.b.p 0 s j k 1.1.g.I B n.I.n.b.T.L.| l l r r r r p c t.9X6XxX,XdXBXBXZXZXDXDX",
"dXnXdXdXlXlX1X'.$XV.=XI.c : - $ $ X   1 t =XxXkXOXe.7.v q V 8 k 1.U g.I V l B H ] / B 9 V q - ; $ - : 9 A t.3X6X>XaXMXNXBXBXZXAX",
"nXdXlXdXdXtX#XOXS.+X=XB i 0 0 j - $ + 9 e n 6XkXxXjXc.2.2 - O ; 8 8 0 j L C 0 % - y f V V - ; 7 V j 6 : 0 S Y.>X:X1XzXNXZXBXZXZX",
"dXdXlXlXaX}.N.S..X4X[ F D l i j 0 6 % 2 y d S.kXaXxX3XF.G % s k L >.V I >.Z q 0 f F G ( a 8 8 s Z u V p r y [ +X_.$XaXMXAXAXBXBX",
"dXmXuXtX6Xm.^ K.0Xj.@.i.i.#.b g p 9 6 0 c t ^ jXjXzXzX'. Xy $ u Z >.l :.,.V 2 9 ~ #.+.{ D c D K A H #.' F d b Z. XY.5XMXBXMXBXBX",
"uXlXdXaX>X%.O.4X;Xl.S././.d.d.e.o.x 0 = G z n _.zXfXBXlX_.t.* i >.L r 8.:.x $ f %.m.u.7.+.7.t.t.c.C.C.r.#.b f 8.T.7.u.jXMXBXAXBX",
"dXdXdX1X[.O.v.9XC.H.$X#X$XOX_.A.u./ u = Q M N -.6XzXmXmX<XC.' 9 B B | Y.{ e & F V._.m.V.V.Z..X=X+X>X:X_.k.} B D E.4._ 6XBXBXSXZX",
"lXdXaX<XK.} T.qXH.2X<X5X<XOXS.V.i.#.S 2 ~ ..n X.oXzXnXlXjXOXC.W F p.XXU.9.y * W [.:X^.S..X=X3X:XOXoXOX>X@Xc.' B P.z.` 2XMXFXVXDX",
"lXtXaX<XC.Q W.;XXX5XsX6X<XOXOXS.i.$.G 1 o.-.T ! m.aXnXuXMXaXS.H.Z..XH.u.+.z > O.:X<X'._.2X6X6XOXoX>X<X#X>XU.:.C x.T.&.6XMXBXDXSX",
"dXtXpX$Xm.` T.;X4XsX<XaX6X$X[.^.d.$.F 1 @.y.! Y ;.OXdXtXBXlX>X_._.k.S.D.O.b > #.6X:X'.oX:X$X1X<X<X6XaXaXaX Xp.J g.R.0.kXxXBXSXDX",
"dXdXpX#Xk.} P.W.7XpXd.1X#Xm.@.m.'.A.+.t e.m.X.Y @.A.tXlXtXAXlX`.'.oX`.m.u.E , e.6XaX$X`.'.<XxXtXOXN.].aXaXV.t.P 6.T.0.0XxXBXSXDX",
"dXtXrX<XV.' g.E.8XsX/.<X`.S._.$X#X$Xe.t y.S.@.Y E d.}.uXdXuXmXtX^.6X].^.m.Q 3 3.jX1X#XOX<XaXBX,X>X>X1X1XaX^.Z.' 9.qXj.2XxXBXmXSX",
"dXdXrX&XV.` <.P.8XsX5X<X^.OX$X#X1X$X3.d i._.@.^ b #.^.rXdXrXBXlX:X!.1X].u.Q < e.jXaX#X#X>XaXlX,X:X6X:XtXaX5X X{ ] 9.H.kXxXNXVXZX",
"tXuXrX&XV.`  .h.k.zXsX>X`.S.[.>X<XA.#.z u._.i.E z F y.#X<XmXdXmXlX'.#X^.-.E , e.jXaX#X#X>X1XlXaX#X:X:XzXjX3XT.{ 4.' H.kXzXmXDXSX",
"tXtXrX<X_.+. . .H.sX6X5X6X5XzXhX>Xd.3.f y._.k.b t F o.^.<XtXdXdXzX<X^.`.-.E < e.kXaX>X#X>X1XaXlXlXMXNXxXaX7XT.' 9.+.8XxXBXmXSXDX",
"uXuXyX%X_.%.} ' v. X3X<X6XaXaX<XOXA.3.t u.oXV.~ * x E u.OX<XlXdXhXhX'.OXS.! 3 e.zXhX<X>X1X6XhXMXzXzXMXzX6XXX9.' h.b.xXzXBXFXSXSX",
"tXuXdX<X'.y.7.9.+.G.OXoXaX6X1XaX$X_.7.d N.].u.#.> * E o.S.#XaXdXlXhX1X`.[...< u.kXhX<X$X1XjXzXMXBXzXhX<X=XH.j.z.Z.;XxXdXFXSXSXSX",
"uXtXuXrX#XV.e.4.&.c.i.V.aX$X&XaX<XoXe.z m.].d.#.y X z ! ;.'.rXtXlXhXzX].).y.> y.xXhX<X$X1XaX1XaXaX1XaX>XH.v.7.+.U.3XzXBXFXFXAXBX",
"gXtXuXeX&XA.-.[ ' *.#.S.<X<XzXaX'.S.#.d B.:XN.-.x * * ^ ! ^.%XtXtXlXlXtX`._.5 -.zXgX<X#X<X>X#X<XzX:X:X-XK.j.7.t.Y.$XfXZXGXGXNXNX",
"uXtXuXrX&X/.S.D.c.v.C.m.^.1XaX`.`.m._ d N.#Xm.u.W w # 4 ..=.(.,XtXhXhXlX<X].! ;.xXgX,X#X:X-X$XzXaX6X-X[.OX-X X3XsXmXZXmXSXBXMXMX",
"uXuXdXtX,X#X<X`.S.K._.y.^.^.S.S./.F.o.3 s.,XN.u.o.z 3 # n ! N.%X<X1XaXlXaX&Xm.^.hXzX<X].=X2X'.<XoX_.S._.[.OX6X<XaXmXVXVXVXmXBXBX",
"uXuXtXrX%XrX,X].m.m.OXN.s.S.N._.S.u.[ 3 m.1Xm.C.y.n x & < ~ =.`.:X<XlXzX}.dX^.`.zX5X>XOXY.-X_.OXoXK._.).1XjX$XaXBXmXmXmXVXVXZXSX",
"uXlXdXtX%XrX`.^.m.m.S.OXoX+X6X2X XF.+.t y.$Xm.m.y.o.S e @ m ) ;.OX}.tXrXrXdX#X'.jX>XoX_.*.*.C.4X3X2XjX6XjX$X:X<XdXrXdXnXmXBXmXmX",
"uXdXdXrX{.{.~.^.oX^.y.y.H.C.r.H. XF.Q t y.`.m.y.s.X.~ g > * Y T d.`.{.{.uXeX%X`.$X#X2X_.P H } c.r.k.:X2X<X<X:XtX{.(.%X,XrXVXBXBX",
"uXuXdXeX|.(.s.M.^.m.A.%._ b F +.t.j.G 1 u._.y.i.!.=.e.n t # 3 ^ ) ^.`.{.%XeX,X'.aX#X6Xk.P  .| 7.t.S.l.S.].hX}.<X|.}.tXtXtXmXBXmX",
"uXuXnXyXuX`.f.s.N.y.u.%.Q H 5.H ' v.z.9 V.6Xy.N.{.~.d.$.n 3 @ n o.y.OX%X%XuXuX<XaXtX>XH.| H z.Z.;X4XS.[.6X:X<X#X`.#XlXdXdXBXBXmX",
"dXuXdXrXuX%X|.`.`.'.D.Q D  .6.6.' 4.P.p a.7XA.^.|.{.S.e.O.f * , Q o.S.$XaXdXhXlXlXmX<X+X} D I.XXZ.Z.4XK.6X6XjXhXaXBXAXBXnXmXmXmX",
"uXdXdXuXuXrXrX#X#XoXk.W v >.P.g.b.' x.J F.3X^.N.,X|.^.V.#.F y @ d _ r.].<XuX1XhXlXlXaX_.' 9.T.Z.I.0XqX7.C.6XjX1X,XlXmXBXBXmXBXmX",
"tXdXdXrXuXdX|.`.<XOXc.F c h I g.6.x.>.C c.7XA.^.eX}.`.F.+.{ b < # F ~ m.:XtX1XtXdXVX<XD.| L.n.w.L.;XU.4.G.4X>XjX>X<XBXVXnXZXZXZX",
"tXaXdXrXtXeX{.#X>X[.7.b :.I Z <.g.T.,.r a.3XoXN.rX}.oXc.t.H / f & 3 Q @.`.,XtXtXzXlXpXD.4.n.5.5.P.U.qXT.G.-XkXaX1X&XdXZXZXZXmXZX",
"tXtXdXuXuX,X{.&X#XS.k.Q n.E.P.6.P.R.q.9 F.sXA.S.,X#Xi.+.qX9./ W t @ n ! s.'.1X1XlXaXaXOX' q.q.P.R.E.P.T.4.C.9XjXaX<XdXZXZXVXmXDX",
"dXtXuXuXtX%X(.`.'.'.y.b ' J h L I I L.r V.5X_.S.6XS.n ' T.=X7.+.n > > ! ) ^.:X1XaXzX5X X| 6.C l v D c b Q u.2X6XaXaXVXVXmXZXVXZX",
"uXtXuXuXuXrX%X{.<X`.-.n z , = r 9 i V y F.5XA.S._.%.f :.n.;XY.u.~ n > d ! =.].>XaXmXaXS.' l r h J 9.7.~ n ..jXlXdXnXZXVXnXVXVXVX",
"rXuXuXuXuXdXdXrX&X(.@.n Q b z r 2 r l 1 S.sXS.S..XF r q.x.b.+Xk.O.7.~ # Y ! k.].aXaX5X XH v H 2.8.G. Xu.@.`.zXlXmXmXmXmXBXVXmXmX",
"uXuXuXuXyXrXrXeX%X#Xd.$.#.O.~ A c 0 0 1 d.aXS.C.H.z - V x.b..X>X+.t.c.< < _ _ S.<XzXfXOXz ' p.p.Y.3X7X X].<XBXmXBXGXnXGXFXmXmXmX",
"uXuXyXuXdXuXuXrXrX{.(.d.i.m.u.7./ K e > oX&XS.OXZ.v - 0 I b.C..X} z.9.F X b F %.^.aXsX$X#.Z.U.=X7X6XsX6X#XlXlXBXnXFXGXGXmXnXmXBX",
"rXuXuXuXuXuXuXyXyX%X{.^.m.;.d.u.4.{ 3 5 6X'.S.=Xc.i 0 L Q.5.z.b.9.w.,.K r * G W y.oXhX6X[.C.S.`.<XaX<X#XtXBXmXGXFXnXDXnXnXmXmXmX",
"tXtXrXuXuXuXuXeXeXrXrX{./.m.m.e.Q t 3 C.].).S.+XD = u 8 Z w.,.q.q.x.>.V 0 - e A Q k.1XjX:XN.S.OX#X,X&XaXBXnXGXFXBXGXnXGXGXGXmXVX",
"uXtXrXuXuXuXuXrXtX&X#XaXOX@Xe.m z F u.+X_.OX7XXXQ * .     0 I I g.g.9 $   . $ { F M -.2XkXoXy.y.s.1XMXzXdXBXdXlXlXZXnXBXmXmXmXmX",
"yXuXuXuXyXuXdXtX#XM.#X>X3X7.x Q #.c. X@XY.u.[ Q { 8.L @ % $ s >.P.L i % $ L :.{ +.O...@.[.kX4XS.y.N.kXjXMXtX}.{.tXBXnXBXnXnXBXmX",
"yXuXuXuXrXuXtX{./.sX>X*XU.G ] 8.c.V.7.E 3 * o . . o p 9 @ = : I g.,.h % 0 0     . # 3 m ! %.F.=X+Xm.>XkXzXzXhXBXrXuXBXBXnXlXBXmX",
"uXuXyXuXyXuX%Xf.#X6X3X8X9.:.] :.Q m N t t w t w < 1 1 , % % s >.L.g.0 : : % = * w t 4 4 d d z n %.OXS._.jXxXzXMX,X<XmXBXBXlXmXmX",
"uXyXyXuXyXtX#Xs.N.6X8XZ.8.H v v m ! _ ~ Q Q F z b G x f i $ j g.L.>.= u i V p 1 b Q ........! E 4 d OXOX9XkXxXzX'.aXlXmXBXnXmXmX",
"uXyXyXuXrXrX%Xm.=.S._.Y.t.F z [ u.V.d.i.y.e.-.#.[ { x K L u V q.I ,.l V ] L / G e.k.V.m.m.A.N.m.e.m m S.jXjXjXN.M.NXmXmXmXnXVXmX",
"rXyXyXyXuXrX|.(.f.=.X.@.O.O.t.@X[.`.^.^.!.^.A.-.W t.B ,.5.B l ] i I ,.5.:.5.c.7. XoX#X#X#X#X#XOX_.k.@.@.y.S.^.N.mXmXmXmXmXmXmXmX",
"rXrXrXrXrXrX%X{.!.M.s.s.S.:X2X:X>X#X#X|.|.|.'.m.W { 2.K ] K 2.2.K p ] 2.4.Y.V.i.<X1XtXrXrXtXtXtX1X2XOX_.'.#XaXMXmXmXmXmXmXmXmXmX",
"rXrXrXrXrXrXrX,X}.,X,X,X,X1X1X<X<X,X,XeXwX}.|.^.u.W [ ] 2.4.c.Y.4.A D ' t.u.e.6XaXdXdXuXuXuXbXlXaXaXaXaXzXzXzXzXmXmXmXmXmXmXGXGX",
"rXrXrXrXrXrXrXrXrXrXrXuXtXrXrXtXtXrXeXyXiXeX,X}./.k.o.~ #.D.+X+X Xu.o._ O.S.aXaXaXdXdXuXbXbXbXlXdXlXzXzXzXlXlXlXnXnXmXmXmXmXGXGX",
"rXrXrXrXrXrXrXrXrXrXrXrXtXuXuXtXtXtXtXuXuXyXrXeX:X:X].OX6X3X6X$X#X$XoXOXaXzXaXdXtXuXdXvXvXnXnXlXlXlXzXlXdXdXlXmXnXnXmXmXGXGXGXmX",
"rXrXrXrXrXrXrXrXrXuXuXtXrXrXyXuXtXtXtXuXuXyXrXrXtX,XtXtXtXaXaX<X&X1XrXtXaXuXtXdXdXdXvXdXvXdXlXlXdXdXdXlXnXmXnXdXnXnXnXmXnXGXGXGX",
"eXeXrXrXrXrXrXrXuXrXrXyXuXyXyXyXuXuXuXtXtXaXrXuXuXeXiXnXiXlXtXuXvXuXrXuXuXtXlXuXdXuXdXdXdXdXdXdXdXlXnXnXnXlXnXmXnXnXnXnXnXnXnXnX",
"eXeXeXrXrXrXrXrXrXrXyXyXyXyXyXyXuXuXtXrXrXpXrXtXuXbXcXiXiXuXuXdXuXuXvXuXuXuXuXuXuXuXdXdXdXdXdXdXdXdXvXnXnXnXnXlXnXnXnXnXnXnXnXnX"
};
