/* XPM */
static char *e5c30865cbcc48dce8d1a5113f59a5c82zFEtxRuNzUAIorm[] = {
/* columns rows colors chars-per-pixel */
"64 64 248 2 ",
"   c #5E361C",
".  c #6B431F",
"X  c #6B4827",
"o  c #775437",
"O  c #6D4C2F",
"+  c #7B613C",
"@  c #7A5C48",
"#  c #7B6349",
"$  c #786953",
"%  c #7D7161",
"&  c #855D39",
"*  c #825627",
"=  c #8C643C",
"-  c #946437",
";  c #845E44",
":  c #866747",
">  c #916C44",
",  c #887148",
"<  c #98744C",
"1  c #856C54",
"2  c #926E52",
"3  c #8B7559",
"4  c #947554",
"5  c #977A59",
"6  c #A97A48",
"7  c #A27D59",
"8  c #8C7963",
"9  c #877866",
"0  c #957D64",
"q  c #987E68",
"w  c #8A6E60",
"e  c #9D825C",
"r  c #9B8358",
"t  c #A5845A",
"y  c #B48757",
"u  c #AA905F",
"i  c #8C826A",
"p  c #998468",
"a  c #9C8C74",
"s  c #988A78",
"d  c #9B907A",
"f  c #8E8574",
"g  c #A48B63",
"h  c #A48B6B",
"j  c #A68968",
"k  c #AB9369",
"l  c #B6976A",
"z  c #A38C73",
"x  c #A28E7A",
"c  c #A88B73",
"v  c #AB9374",
"b  c #A3937D",
"n  c #AC947C",
"m  c #AC9A7D",
"M  c #A79776",
"N  c #B29474",
"B  c #BB9B73",
"V  c #B39A7C",
"C  c #BA9D7B",
"Z  c #B49B75",
"A  c #B58D67",
"S  c #BAA37B",
"D  c #B9A478",
"F  c #C49A69",
"G  c #C09B7E",
"H  c #C2A474",
"J  c #C6A87B",
"K  c #D4AD78",
"L  c #D6B27D",
"P  c #CBB07C",
"I  c #C3965F",
"U  c #988C83",
"Y  c #9D9386",
"T  c #9E9B92",
"R  c #A59983",
"E  c #AC9C84",
"W  c #A49D8C",
"Q  c #AC9D8C",
"!  c #A69586",
"~  c #B59C84",
"^  c #B49D8B",
"/  c #BB9E83",
"(  c #AA9E95",
")  c #ADA28C",
"_  c #BAA385",
"`  c #BDAB85",
"'  c #B4A28A",
"]  c #BCA48B",
"[  c #BDAB8B",
"{  c #B4A484",
"}  c #ADA495",
"|  c #B5A593",
" . c #BAA593",
".. c #B5A995",
"X. c #BCAC94",
"o. c #B5AA9B",
"O. c #BBAC9C",
"+. c #B4A69B",
"@. c #BDB29A",
"#. c #BEB08B",
"$. c #B8AAA5",
"%. c #BCB3A3",
"&. c #BBB7A9",
"*. c #BFBBB0",
"=. c #C29E81",
"-. c #C3AA83",
";. c #C2AC8C",
":. c #C7AA87",
">. c #CBB38C",
",. c #CAB688",
"<. c #D6B989",
"1. c #C3AD94",
"2. c #C2AC9C",
"3. c #C9AE96",
"4. c #CBB394",
"5. c #C4B49D",
"6. c #CAB49C",
"7. c #CBB99D",
"8. c #C7B796",
"9. c #D4BE9C",
"0. c #D3B894",
"q. c #E4BE8E",
"w. c #C3B4A4",
"e. c #CBB5A4",
"r. c #C4BAA3",
"t. c #CCBBA3",
"y. c #C3B5AA",
"u. c #C4BBAA",
"i. c #CCBCAC",
"p. c #C9B5AB",
"a. c #D2BBA3",
"s. c #D1BDAC",
"d. c #D7BBA4",
"f. c #CCBCB3",
"g. c #C7BDB7",
"h. c #D2BEB3",
"j. c #C2AEA3",
"k. c #D9C399",
"l. c #E4C998",
"z. c #EDD29D",
"x. c #CDC2A5",
"c. c #CCC2AC",
"v. c #C8C3AC",
"b. c #D4C4A4",
"n. c #D3C3AC",
"m. c #DAC4AB",
"M. c #DBCBAC",
"N. c #DAC8A6",
"B. c #DCD2AD",
"V. c #CCC4B4",
"C. c #CDC4BB",
"Z. c #CBC7B7",
"A. c #D4C4B4",
"S. c #D4CAB4",
"D. c #DBCCB4",
"F. c #D2C5BA",
"G. c #D4CBBB",
"H. c #DBCCBB",
"J. c #DBC5B3",
"K. c #DBD2BD",
"L. c #D8D0B9",
"P. c #E2CBA6",
"I. c #E5CBAB",
"U. c #E6CAA9",
"Y. c #E7D3AD",
"T. c #E2CDB4",
"R. c #E2CEBC",
"E. c #E3D3BB",
"W. c #E7D6B8",
"Q. c #F2DAB8",
"!. c #FBDFAF",
"~. c #FCE7B8",
"^. c #CFC7C5",
"/. c #D4CCC3",
"(. c #DACDC4",
"). c #D7CCC7",
"_. c #D6D2C2",
"`. c #DCD3C4",
"'. c #D4D2CC",
"]. c #DDD5CB",
"[. c #DEDBCC",
"{. c #DBD9C5",
"}. c #DCD5D3",
"|. c #DDDBD2",
" X c #D8D5D5",
".X c #E3D5C4",
"XX c #ECD5C2",
"oX c #E3DAC4",
"OX c #EADAC3",
"+X c #E2D5CB",
"@X c #E3DBCC",
"#X c #EADDCB",
"$X c #F1DEC9",
"%X c #E4DBD4",
"&X c #EADED4",
"*X c #E4DCD9",
"=X c #E9DEDC",
"-X c #E2D6D4",
";X c #ECD9CE",
":X c #DEE0DD",
">X c #EBE2CC",
",X c #E9E2C9",
"<X c #F5E3CB",
"1X c #F6E3C6",
"2X c #E4E2D4",
"3X c #EBE3D4",
"4X c #E6E3DC",
"5X c #ECE4DC",
"6X c #ECEBDD",
"7X c #EDE9D5",
"8X c #F2E4D3",
"9X c #F2E4DB",
"0X c #F3EBDC",
"qX c #FAEBDD",
"wX c #F8E9D5",
"eX c #F6F2DC",
"rX c #E7DFE0",
"tX c #E6E4E2",
"yX c #EDE5E3",
"uX c #EDEAE4",
"iX c #EDECEA",
"pX c #EAE7E7",
"aX c #F2E6E5",
"sX c #F2EBE4",
"dX c #FAEEE3",
"fX c #F3EDEB",
"gX c #F9EEEC",
"hX c #F4F2E4",
"jX c #FDF3E4",
"kX c #FFFAE5",
"lX c #F5F2EC",
"zX c #FCF4EC",
"xX c #FEFBEC",
"cX c #F5F9EF",
"vX c #F5F5F3",
"bX c #FAF5F3",
"nX c #F6FAF4",
"mX c #FCFBF5",
"MX c #F5F6F9",
"NX c #FBF6FB",
"BX c #F6FBFC",
"VX c #FDFDFA",
"CX c #FAFBFD",
"ZX c #FDFBFD",
"AX c #FAFDFD",
"SX c #FCFCFD",
"DX c #FCFCFC",
"FX c #F1F2F0",
/* pixels */
"AXAXAXAXVXVXVXVXVXVXVXVXDXDXDXVXDXCXDXDXCXAXDXDXVXmXmXmXnXDXMXAXBXBXDXDXVXmXxXmXDXDXDXAXCXmXVXVXVXVXDXDXDXDXDXDXDXDXDXDXDXDXDXDX",
"AXAXAXAXVXVXVXVXVXVXVXVXDXDXDXDXVXCXAXAXAXDXDXCXCXVXVXmXDXvXDXBXAXBXMXDXbXVXbXVXCXDXDXAXDXVXVXCXVXVXDXDXDXDXDXDXDXDXDXDXDXDXDXDX",
"DXDXDXDXDXDXDXDXDXDXDXDXDXDXDXDXDXDXDXDXDXMXCXDXMXDXMXnXbXVXvXVXnXvXDXAXCXnXVXnXDXCXMXDXVXVXCXDXDXDXDXDXDXDXDXDXDXDXDXDXDXDXDXDX",
"DXDXDXDXDXDXDXDXDXDXDXDXDXDXDXDXAXDXDXDXZXVXDXDXAXBXAXDXDXmXxXzXzXmXbXZXDXAXDXAXDXDXDXCXVXVXVXDXDXDXDXDXDXDXDXDXDXDXDXDXDXDXDXDX",
"VXVXDXDXDXDXDXDXDXDXDXDXDXDXDXDXCXDXDXvXVXDXCXvXMXMXpXnXbXmXxXn.OXxXmXbXCXiXiXvXvXDXDXVXmXVXDXZXDXDXDXDXDXDXDXDXDXDXDXDXDXDXDXDX",
"VXVXDXDXDXDXDXDXDXDXDXDXDXDXDXDXCXDXZXVXVXfXyXiX:XvX4XlXxXwX7.[ Q.XXdXzXlX4XvX4XiXpXfXmXVXVXZXZXDXDXDXDXDXDXDXDXDXDXDXDXDXDXDXDX",
"VXVXZXZXDXDXDXDXDXDXDXDXDXDXDXDXDXCXVXVXmX4X*XlX5XzXjXqXkX8.# 4.P.v n.xXjXxXxX|.lX*X4XmXVXnXCXZXDXDXDXDXDXDXDXDXDXDXVXVXVXVXVXVX",
"VXVXZXZXDXDXDXDXDXDXDXDXDXDXDXDXDXDXvXvXVXzXdXjXqXkXD.;.4.C + :.-.5 7.t.x.>XkXeXzXsXbXVXcXnXDXCXDXDXDXDXDXDXDXDXDXDXVXVXVXVXVXVX",
"VXVXZXZXDXZXDXDXDXDXCXDXCXVXDXCXvXDXvXvXmXhXjX$Xa.:.4 < t H H l k ,.I.[ k ` B.K.eXmXlXcXvXnXMXAXAXDXDXCXDXDXCXCXVXVXVXVXVXVXVXVX",
"VXVXZXZXDXDXDXDXCXDXCXDXVXnXDXDXCXvXvXVXlXsXjXq o < A 6 y q.t l.l.,.~.~.l.k.0.p c.xXhXnXFXnXvXMXDXCXDXDXDXDXDXDXVXVXVXVXVXVXVXVX",
"VXVXZXZXDXDXAXAXDXDXCXCXDXmXbXbXlXuXvXpXfXzXH.3 o = y 6 y L F <.z.<.!.z.l.P r , b xXmXlXbXfXvXbXDXnXCXDXnXCXVXnXVXVXDXDXDXDXDXDX",
"VXVXZXDXDXDXAXAXDXDXDXVXVXmXmXfX%XsXbXlX5X]...z C . - 6 6 F F L L L q.K J > = 4.] xX5XsXzXzXyXbXDXDXCXDXCXDXDXCXVXVXDXDXDXDXDXDX",
"ZXZXDXDXDXAXAXAXDXCXDXnXbXzXzX%X/.zX/.T &.].w.! j ; . & - 6 y y y F F y > . : v J.bX9X+.y.%XzX=XyXVXmXmXmXVXVXVXVXVXDXDXDXDXDXDX",
"ZXZXDXDXAXAXAXAXDXnXVXnXmXzXsXC.(.dX5XC.%X@XV.Q 8 3 X X X * - 6 6 < = & = : 0 ^ 8XzXzX+Xy.3XzX].'.VXVXVXnXmXnXDXVXVXDXDXDXDXDXDX",
"DXDXDXDXAXAXAXAXDXvXvXlXmXlX5XC.F.qX@X[.xX5X2XG.y.2.~ ; o < y I K L B 4 ;.D.G.hXzXzXhX7X{.eXhXV. XVXmXmXlXnXCXDXDXDXDXDXDXDXDXDX",
"DXDXDXAXAXAXAXAXCXnXfX|.2X(.G.C.V.G.>X{.@X0X3X%X&X(.s.n : 7 A F K <.-._ .X#X0XcXzXhX'.3X[.6X{.Z.|.hX5XuX4XlXVXCXAXAXDXDXAXDXZXZX",
"AXAXAXDXAXDXDXCXVXlXfX&XF.H.i.G.C.G.K.E.S.7XsXyX].F.i.e./ 2 > A <.J h s.+X+X(.3XhX0X2X].[.[.V.L.oX`.>X@XdXzXbXDXAXBXBXmXDXAXZXZX",
"DXAXAXDXAXDXDXmXmXzX2X+X`.H.OXoX&X].K.W.>XoX%Xg.g./.H.5.6.3.B < B >.a.O.$.).&XC.K.oX3X@X@X].2XjX,XoXS.8X8X5XDXCXAXBXBXnXDXDXZXZX",
"VXVXAXDXAXDXCXnXzXzX+XO.d 9 a A.@X+XD.D.>X`.V.^.].`.G.r.b.m >.k -.P.t.A.$.$.C./.u.V.u.@X&X].sX2Xu.a i s `.zXbXVXAXAXDXDXDXVXZXZX",
"mXVXVXDXDXDXCXbXzX+Xw.| ! s $ s +XF.OXK.K.i.(.].3X@X8X,XE.6.h 9.k.N.1X.X@X%Xu.(.A.5.....#X@X].%Xu.R E d 8 #XmXVXVXAXAXDXDXVXZXZX",
"mXmXVXDXZXZXnXzX0XO.r.7.n.5.^ 8 y.{.L.oX%.y.@XsXqX7X,XM.7.] / V C ;.8.D.oXoX3XoXt.5.X.E X.>X@X%XF.i.D.x.R ) zXmXDXDXDXDXVXVXVXVX",
"mXmXVXZXZXZXbXzXG...n.n.E.T.^ s | oXG.V.`.@X2X0XqXS.x.8.p 0 0 3 3 3 3 ' r.G.v.X.X.] V 1.E J.`.0XA..XOXD.E O.3XzXVXZXDXDXVXVXVXVX",
"mXmXVXZXDXVXbXlXV.i .XW.OXJ.e.b | E..Xr.| G.9X0XS.,XE.m ' i.i.s.5.' d $ d K.wXE.5.2.6.a x n.E.8XH..XE.5.n.+XF.mXVXZXZXVXVXVXDXDX",
"VXVXZXDXDXCXbXlX@Xs s X.t.n.1.~ ' T.D.O.%.F.0XV.7X8Xr.c.oX`.+X(.H.H.V.O.9 d .XE.E.X.2. .1 5.E.1XOXH.t.p ..Q ].VXZXZXVXVXVXDXDXAX",
"ZXZXZXDXDXVXvXsX2XoX..X.E.a.] n _ M.t.H.(.(.(.G.xX{.S.7X{.&X%X-X-X].)./.p.f ' R.H.A.y.f.x z M.N.1Xb.t.n.u.3XmXVXVXVXVXmXVXAXAXAX",
"ZXZXZXDXDXDXnXlX0X&XOXwXM._ ;.v [ b.J.8X&X].o.+XjXK.K.8X9X=X=X=X*X X-X].(.w.a 7.OX+X+X/.j.q -.0.N.8.M.D.kXzXfXbXVXVXVXmXDXAXAXCX",
"ZXZXAXAXDXmXbXlXzX@XR.$X6.v -.-.8.M.#X3X@XC.%.@XjX@XF.0X9XaXaXrXtXyX=X-X(.H.R ' oX3X@X].A.z k l Z 9.M.D.#XhXsXVXVXCXVXmXDXAXAXAX",
"CXDXDXAXDXDXnXzXzX#Xi.n.;.h J k.N.b.D.+X2Xg.W K.mX0Xf.+XzX9X4XfXtXyX*X=X&X`.c.b G.9X*X%XA.' k u l D P.M.S.@X*XDXCXCXDXDXDXAXAXAX",
"DXDXDXAXAXAXnXbXhXG. .4.>.J <.<.k._ H.8X`.F.Y %.zXdX@Xg.`.zXzX4XiX*XuXyX%X].(.} V.sX=X}.(.2.c t l l S k.b.K.lXCXCXCXVXVXVXDXAXAX",
"VXVXDXAXDXDXnXzX0XO.1.v B <.,.l.g ;.<X+X(.F.W Y (.mXdX5Xu.&.2X6XhXsXsX5X4XyX[.&.*.uX].(.(.s.a g < H l S B.,XhXvXCXCXDXVXVXVXVXAX",
"mXVXDXZXDXDXNXzXwXn.v e H P <.H g 7.#X`.].C.%.i W /.mXdXjXoX&.v.Z.7X0X0X4X|.|._.V.5X@X+XE.n.z h l y P D ,.W.hXVXCXCXZXZXVXmXmXmX",
"VXmXCXDXDXDXNXzX#Xm.N k -.J <.t ;.OXwX/./.].V...9 Y f.qXjXkXjX>XG.u.u._.6XuX2X[.[.[.#XS.OXi.~ 5 B J l P k.B.>XlXZXCXZXZXVXmXmXmX",
"VXDXmXVXvXvXMXfXH.4.k k Z 0.:.9.OX+X@X5X%X].`.G.o.9 9 E n.<XjXzXzX5X+XV.&.[.hX2X2X7XoX@X+XO.x ] I.k.-.-.<.N.7XmXCXCXDXmXVXnXVXVX",
"DXZXnXmXuXvXCXfXh.~ A D D N.N.T.i.V./.].}.*X%X).G.w.b 3 9 ! r.(.0XmXxXdXG.V.Z.6XsX2X@X@Xu.e.^ z _ Q.U.>.<.Y.@XuXVXDXVXmXVXVXVXDX",
"ZXCXVXVXuXlXvX}.A.4.g k 9.Y.9.a.S.G.C.%X'.rX X}.).C.f.w.! 9 % 9 E r.#XqX0X0XC.C.4X}.%X&X| ' ' n p v I.I.,.8.H.sXlXvXvXvXvXVXAXAX",
"DXDXDXvXtXyXpX).| ~ g g k.x.7.7.x.v.`.].'.'. X'.)./.C.*.%.%.} f $ $ d u.#XdX4X^.g.*X-X`.E z ~ V _ m / W.>.8.G.%XtXpXpXiXiXCXDXAX",
"DXDXBXvXiXpXtX].! p g Z W.5.J..XS.@.v._.|. X X'.'. X}.)./.g.&.u.o.s % 9 ) `.gX*X(.G.&Xp.E V 5 C ~ ] 6.T.k.#.c.2XtXiXiXiXFXDXDXAX",
"MXDXAXMXAXvXiX&Xe.p e 4.E.i 9 9 H.c.w.K.L.%X/.2X%X*X4X%X%X|.)././.C.o.s % ( aXbX3XH.+Xi.' h e -.3 $ @ m.Y.` K.hXlXbXCXMXMXDXDXAX",
"DXDXAXBXZXbXlX2Xm.p e I.x.W @...5.D.H.n.`.`.Z.3XhX5XsXaX*X=X4X|.].).).C.Y f ^.mX8XE.&XA.V h h ;._ n w n 1X[ S.cXhXcXVXDXDXZXDXDX",
"AXMXDXDXZXbXuXG.4.v 5 P.t.u.S.D.6.6.' X.oXS.} @XsX4XyXaXaXyX=X4X4X%X}.^.y.s $.zXqXH.+XH.[ k p ;.1.W.^ 0 Q.[ S.7X2X6XvXCXDXCXDXDX",
"VXVXCXDXDXbXsXy.] Z 4 I.7.S.5...1.6.' D.E.S.W y.gXaXfXfXfXaXsX5X2X4X}.].G.W $.zX0XF.+X+XX.m  .z q ] e.c W.;.t.7X_.[.lXZXZXDXCXVX",
"VXDXCXVXmXfX5Xw._ Z 4 Y.t.Q R 7.R.6.n.#XoXG.+.Y yXgXgXfXgXsXsX5X6X|.*X%X`.o.C.mX3XS.%X+Xi.' |  .~ 3 1 c Y.` D.#X{.uXVXDXNXZXVXVX",
"VXVXCXVXVXbXgXF.n N 7 U.5.) n.E..Xu.+X>X`.`.u.U g.gXfXbXuXfXiXfXyX4X3X@XK.%.%XxXoXv.&X%X`.f.i.e.^ 3.c 0 Q.Z n.@XxXmXbXbXZXZXVXmX",
"DXVXCXVXmXzXfX/.~ v t 0.E.R b H.+X5X5X].[.].&.( +.&XxX5XzXlXfXiXiXfXyX5X`.u.dX0Xv.c.@X`.(.+X+Xp.' q 3 C P.D n.2XhXmXbXVXDXVXCXVX",
"DXDXDXmXmXlXfX).Q h t -.W.E r.H.5X4X3X[./.G.G.) H...8XjXdXfXfXfXpXfXyX%XG.#XeXS.r.oX@XG.`.@X`.i. .a.# ;.P.m S.%X4XmXVXmXVXCXDXDX",
"CXCXVXDXVXnXvX*Xp./ j k W.R | H.%X6X*X].@XG.D.t.wXT.' <XxXzXfXsXsXsX5X&X8X<X7.R K.3X`.{.{.{.).u.' z # I.,.` `.).bXVXmXbXVXDXCXBX",
"CXCXDXnXmXvXvXtXf.n Z k M.D.Q H.2X0X2X+X+XH.D.n.;.S _ V a.>X8XhX8XwX>X.Xn.E ! +X9X&X].*X%X2X2XV.w.z z Q.S 8._.lXvXnXVXDXDXDXBXAX",
"DXCXVXnXDXnXMXpXf.x p ` S 1XJ.2.t.K.c.r.p..XJ.a.n 3 , 1 3 a E X.X.X.E b x Q .X#X(.`.(.F.`.@X@XS.b 0 m.M.#.B.2XbXVXAXDXCXvXDXAXBX",
"AXDXVXmXmXnXvXuXG.t.E M D >.P.p 7.X.8 # O $ +.qX.XH.@.m a p 8 i i M b E p.+X#XA.J.a 9 $ $ ! S.T.1 h Y.8.@.{.hXcXmXVXAXAXVXVXAXAX",
"CXDXVXmXDXDXbXfX@Xw.b E -.J 0._ :.p 3 3 p 0 | E .XoXc.J.x.M.~ b.b.7.W.H.F.h.D.n.b.M p m a $ 8 M.v :.9.1.{.6X4XcXmXVXAXAXVXmXAXAX",
"DXVXmXmXVXDXNXbX&Xi.R z e H C :./ v V m.m.Y.9.p z T.D.D.n.E ~ T.m.b.OXH.s.5.t.{ v P.W.1XI.z # V >.:._ t.{.fXvXlXVXVXAXDXVXVXAXAX",
"VXVXVXmXCXCXNXbXgX&Xs.z 4 e B l N c c / j C 0.Z , D b.8.T.p 6.1.1.W.W.<X .' _ ` Z e U.0.P.N q v g Z _ n.9XzXZXDXDXDXVXVXVXVXDXAX",
"VXVXDXmXVXZXNXNXgX9XE.[ p 4 , k 5 4 5 / 2 5 l J k r ;.4.] d.XX;._ E.$Xn.n h v J ,.g t B =.=.2 : 5 5 M i.xXVXNXDXZXDXVXVXDXDXDXDX",
"VXVXDXDXVXZXZXVXbXhXD.m 7.9.C e t X N 5 -.< < H H , N a.~ n wX] z 1X6.J.] 5 e J D H t J 2 4   : : k M.n.O.zXVXZXZXZXVXVXDXAXDXDX",
"ZXZXAXAXVXVXVXVXbXzX{ b.T.m.d.C N : 4 5 5 j O r B : 3.XXe.z 1.;.z 1.m.XXa.0 # :.< , 5 7 4 o : 2 h W.D.8Xi.w.mXmXDXZXVXZXAXAXZXVX",
"ZXZXAXAXVXmXmXmXVX].m W.W.#XW.0.N 4 : 3 @ : 2 X V d.<X#Xe.E p z a q 2.R.T.] ] h + + : 2 4 : o j T.8XwX+XOX..zXmXVXZXVXZXCXAXZXVX",
"ZXZXAXAXVXVXVXmXVX5Xa 1X>XjXwXM.>.e p q 8 w # o O x h.F.p.o.R p a b Q j.A.i.b # 1 1 1 1 8 z 5 m qXjXjX#X#X) 7XmXVXVXVXZXAXAXVXmX",
"ZXZXAXAXVXVXVXVXDXVXd X.jX#XwXOX{ x.E.H.h.p.2. .Q d U ( C.@XoXK.E..XF.+.! ! +.w.r.i.i.F.H.E.7.3 8XxX0XjX@.O.mXbXVXVXVXVXAXAXVXmX",
"VXVXDXDXVXZXCXZXDXbX0Xd W G.V.R @.,X3X9X=X(.(.+X].].*XuXsXyX3X3X3X&X%X%X%X=X*X%X5X%X@X5X0X0XeX) 9 i.C.W f 5XbXVXZXDXVXVXAXDXmXmX",
"VXVXVXVXDXAXCXZXZXbXmXxXo.W } Z.jXhX2XsXzXaXdX5XuXsXiXiXfXzXlXsXsXsXuXyXyXyXyXuXsXuXbXbXuX2XxXxXS.W W o.zXVXbXDXZXDXDXVXDXDXmXmX",
"VXVXmXVXAXAXZXZXZXDXVXlXmXmXmXmXbXnXmXbXfXfXbXlXfXfXlXvXvXfXfXbXlXfXfXfXvXvXvXvXnXvXbXbXbXbXbXxXxXmXxXmXVXmXDXNXZXAXAXAXDXmXVXmX",
"VXVXmXmXDXAXCXZXCXDXCXVXxXzXVXVXCXCXCXCXVXVXbXlXbXvXvXnXvXvXvXbXvXvXCXCXCXvXvXbXnXDXCXDXMXDXVXnXbXcXmXzXVXVXVXDXZXAXAXAXDXVXVXVX",
"ZXZXVXmXDXAXAXZXVXmXAXnXmXmXDXNXDXDXVXZXVXmXbXVXCXCXbXvXCXDXZXNXDXCXMXCXCXnXnXnXmXVXMXDXZXZXDXCXAXBXnXmXnXnXVXmXVXAXBXBXDXVXVXDX",
"ZXZXVXmXDXDXAXDXmXmXBXAXmXmXCXCXZXCXZXDXVXVXDXCXVXAXVXVXVXVXZXZXCXAXDXDXDXDXmXmXbXVXDXCXDXZXMXDXBXAXVXmXVXmXmXmXVXAXBXBXZXZXDXAX"
};
