/* XPM */
static char *f2f2b779ce9940c8eee4a0618f2df220f5WIW5doIsSxpP6J[] = {
/* columns rows colors chars-per-pixel */
"64 64 240 2 ",
"   c #010101",
".  c #0B0100",
"X  c #050905",
"o  c #02010A",
"O  c #090A0A",
"+  c #090905",
"@  c #130100",
"#  c #1B0100",
"$  c #1C0900",
"%  c #150A09",
"&  c #1B120B",
"*  c #191616",
"=  c #030210",
"-  c #230200",
";  c #2B0300",
":  c #240D01",
">  c #2B0B00",
",  c #230D0F",
"<  c #320401",
"1  c #3A0200",
"2  c #330B00",
"3  c #3C0D00",
"4  c #300F0A",
"5  c #251000",
"6  c #291404",
"7  c #2C1509",
"8  c #351300",
"9  c #391802",
"0  c #321815",
"q  c #3B241A",
"w  c #2F200B",
"e  c #353635",
"r  c #440500",
"t  c #470900",
"y  c #5A0D00",
"u  c #451300",
"i  c #421A00",
"p  c #4A1805",
"a  c #521B00",
"s  c #5B1B03",
"d  c #561502",
"f  c #681B00",
"g  c #442302",
"h  c #472607",
"j  c #532300",
"k  c #5C2400",
"l  c #5A2B0C",
"z  c #552A04",
"x  c #5D3502",
"c  c #48251A",
"v  c #542916",
"b  c #5A3619",
"n  c #652903",
"m  c #7B2A00",
"M  c #6A3606",
"N  c #743302",
"B  c #743D01",
"V  c #7D3904",
"C  c #6A3A1A",
"Z  c #703916",
"A  c #6B2C11",
"S  c #503B20",
"D  c #664409",
"F  c #774805",
"G  c #79481B",
"H  c #754F13",
"J  c #75502F",
"K  c #464646",
"L  c #4C4C4C",
"P  c #565656",
"I  c #7A7A7A",
"U  c #853300",
"Y  c #8C3A08",
"T  c #953A00",
"R  c #852E17",
"E  c #863811",
"W  c #A43B00",
"Q  c #894808",
"!  c #974700",
"~  c #895406",
"^  c #945306",
"/  c #844918",
"(  c #994D19",
")  c #865712",
"_  c #965618",
"`  c #A24300",
"'  c #AC4C00",
"]  c #A94B0E",
"[  c #B44A00",
"{  c #A75705",
"}  c #BB5401",
"|  c #BF5B01",
" . c #B25000",
".. c #A95B19",
"X. c #B95918",
"o. c #996417",
"O. c #9F680E",
"+. c #AE6A06",
"@. c #B76502",
"#. c #B87306",
"$. c #A56B1A",
"%. c #B36314",
"&. c #B97A17",
"*. c #8B5628",
"=. c #9A5923",
"-. c #8A512C",
";. c #A45C23",
":. c #A15E31",
">. c #9C682A",
",. c #9C762E",
"<. c #9D6938",
"1. c #A86828",
"2. c #B76928",
"3. c #B87925",
"4. c #AA6935",
"5. c #AA743D",
"6. c #B57237",
"7. c #B96D31",
"8. c #C65903",
"9. c #C46402",
"0. c #CA6300",
"q. c #C56C02",
"w. c #CB6C03",
"e. c #C7690B",
"r. c #D56D01",
"t. c #D36B0C",
"y. c #D86B0A",
"u. c #C47200",
"i. c #CB7301",
"p. c #CC7B01",
"a. c #C87708",
"s. c #D4750C",
"d. c #DA7B0C",
"f. c #D57909",
"g. c #CB6B14",
"h. c #C76713",
"j. c #D86C15",
"k. c #C57B1A",
"l. c #D87717",
"z. c #E47D0D",
"x. c #E57918",
"c. c #C67628",
"v. c #D67A26",
"b. c #C57532",
"n. c #D1722C",
"m. c #E27B27",
"M. c #E87F3B",
"N. c #9D7046",
"B. c #B57648",
"V. c #A98436",
"C. c #BA883A",
"Z. c #BA862B",
"A. c #D58B02",
"S. c #DC840B",
"D. c #DA8B0A",
"F. c #D68605",
"G. c #C98416",
"H. c #DB8415",
"J. c #D58B13",
"K. c #DD8D16",
"L. c #DA891B",
"P. c #D89619",
"I. c #D5910B",
"U. c #E28C0C",
"Y. c #E6960A",
"T. c #E68A19",
"R. c #E89718",
"E. c #F2921A",
"W. c #DCA01B",
"Q. c #EAA30E",
"!. c #E9A315",
"~. c #F7A81E",
"^. c #F5B41D",
"/. c #C78325",
"(. c #D78926",
"). c #DC9529",
"_. c #C98A38",
"`. c #CB9235",
"'. c #D59835",
"]. c #D38D30",
"[. c #E68824",
"{. c #F18B2C",
"}. c #E69727",
"|. c #F49C2B",
" X c #FC9A2C",
".X c #F59128",
"XX c #E78B36",
"oX c #E79536",
"OX c #F59A33",
"+X c #EAA826",
"@X c #F7A728",
"#X c #F8B527",
"$X c #E8A537",
"%X c #F4A535",
"&X c #FCAD34",
"*X c #F4A23D",
"=X c #FCAD3A",
"-X c #F7A837",
";X c #FDB53C",
":X c #FBB837",
">X c #FFC43D",
",X c #FFCA3A",
"<X c #B98244",
"1X c #B4885B",
"2X c #C88746",
"3X c #D48941",
"4X c #D49242",
"5X c #D99849",
"6X c #DA9859",
"7X c #CA944A",
"8X c #E69947",
"9X c #F49A48",
"0X c #DEA94C",
"qX c #E2A342",
"wX c #EAA447",
"eX c #F3AD45",
"rX c #F9AC4A",
"tX c #FDB243",
"yX c #FEBA44",
"uX c #FFB44B",
"iX c #FAB74B",
"pX c #E8A454",
"aX c #F6AA55",
"sX c #FCB553",
"dX c #FEBC53",
"fX c #FFBC59",
"gX c #F8B45A",
"hX c #D8A37B",
"jX c #F6AA6D",
"kX c #FDB763",
"lX c #F8BB73",
"zX c #E7B26A",
"xX c #FFC64E",
"cX c #FDC747",
"vX c #FFC556",
"bX c #FFD655",
"nX c #FFD34D",
"mX c #FFC161",
"MX c #FFC36F",
"NX c #F9C089",
/* pixels */
"                                                o o o o                                         o                             . ",
"                          .                                                                                                     ",
"                X                                                                                                               ",
"                  X         X   o                                                                                               ",
"                            o o o                   . .                                                                         ",
"                      X   . . .                     . .                                                                         ",
"                        @ c b # @                                                                           . . .               ",
"                    . . @ 3 B.*.- @ .   .                                                                 @ - > , O             ",
"o     X             . . ; Z _ =.4.l @ .               o   .   X   .   .     O       . + X             . $ g *.-.v @     X       ",
"              . @ @ @ - Z =.Y f m *.8 @ .     . . . @ : 9 # @ . . @ q # . * * .       +     . . @ @ . . 2 Q b.7.G @       .     ",
"  .       & # ; 1 1 t r ..v.' T m ( s - .     . - M m ;.2X..k p - # < l - # #           & : b C a 2 # # s ..e.XXV - .           ",
"    .     q v n R R E ! l.{.m.g.X.X.E A 9 . . - *...v.j.[.l...7.;._ 1.6.*.C : . .     . 6 J k 6.B.:.G 5.c.XXx.g.=.; .   X       ",
"o o       @ n 6X9Xh.XX*X X@X.X9Xm.M.n.jXhX- @ b lX#.d. X Xl.v.v.v.XXg.v.3XNXh @ . .   . 9 1XjXXXn.b.2.8X(.|..XsX6X- .         . ",
"  o o     $ M ..XX.XT.S.r.r.} t.W W ] ( G - @ h C.'.*XT.E.s.w.9.| x.j.} { <.8 . . .   . : C 6.%.XX' T H.@.S..X8X>.# @           ",
"          . p f T [.&X:X0.y.j.8.} 2.s # @     @ $ 8 B aX=Xp.T.T.9.[.oXU t - .       . .   . @ ; ! yXD.F.@X&X(.V 3 - .           ",
"        X . < r U %.! *Xv.[ x.t.{.2.3 #   O       @ # _ vXD.i.d.H.OXc.s - .   o             : D +.&X#X#X=X/.Q a v 0 .           ",
"          . - r f V y ..9X` z.z.L.5X3 # .         . - a oX@X! s.s.oXb.< @       o       . @ l 4.&.>X~.;X4XB 9 h 7 & .           ",
"          @ 4 p / n y f 9Xs.z.d.L.pXu - .           - C /.yXT.@.H.rX3X< .   +   o o       : C a #.cXu.wX/ - @ $ .               ",
"          & q c C A y y (.%XT.0.l.kX/ #           X @ h B qX}.@X@X}.sXB @ .               . 7 3 &.yXa._.; # @                   ",
"          . & : v s r 4.).&Xs.} ' XX6X2 .             @ x _.xXY.F.D.uX3.; .   X o           @ < qXG.).1.# @                     ",
"      .       . 2 p r 4.$XcXw.[ 8.8.fX) @           X # Z 3.xX!.A.A.@XwXa #   X X       . @ < n fXG.gXM @ .                     ",
"            . . > c 1 *.qXxX}.j.j.{.vX$.9 0           @ Z Q yXY.Y.Y.~.dXN ; .     .     . # N 8XeXG.gXk @     X                 ",
"                @ $ - C o.].uXl.x.w.@XoXA - .       . 0 Z ( P.#XY.U.@.=X_.p .         . $ x 3.uXL.).pXM $ .         o o         ",
"          o       . @ ; j ^ wX[.t.| H.rXn - .       . q r Q tXU.d.E.E.|.oXQ 5         5 H `.P.&X#.sX2.z @   .       o o   .     ",
"                      @ ; u c.oX9.w.{ rX2X3 @       . > ; _ uXw.0.r.E.U.tX$.>     . @ i pXG.+XP.a.wXN < .   +                   ",
"                    X   @ - N aXg.q.{ (.MXx .       @ # a 8XtXr.r.x.w.U.yX_.9 .   . - 5.qX+.>XW.&X$XM j w X                     ",
"                        . # a pXl.q.H.(.kXF @ +   . - G 3.uX{.y.j.E.p.D.R.gXl @ . . 2 5./.J.;XJ.cXG.C.D .     X                 ",
"                  o   X   @ u 6XsXd.s.s.*X1.9     @ l Q (.-Xe.[ e.OXR.A.u.mX/ #   + @ *.&.$XJ.P.:X'.V.6                         ",
"                    X     . # <.sXS.s.8.l._.- . . # / { }.a.9XU ! sXR.A.p.tXC.- . . . g O.vX#.:X].>.g .     = o                 ",
"                        .   . 2 `.-X.Xx..XpX3 @ @ C ( @.=XL.4Xr d sX@XY.A.}.gX3 @   . # Z.;XP.vX$.; . .     o o                 ",
"                            % @ ) wX Xz.S.fXG # 8 *.! l.:XxX,.- ; `.cXQ.A.K.dX~ g # 2 k rXF.@XeX<X8 .                           ",
"                        +     @ i pXH.S.i.*X<X; 2 _ k.;X+XxXx @ # V.nXQ.U.T.;X$Xo.H / ^ }.J.uX^ ; .                             ",
"                              . - <X}.S.9.g.6Xa - ) +X,X+X'.> . @ ,.nXI.f.K.+X:X+.k.k.(.}.$X5X1 @                               ",
"                              . # G dXR.[.l.9XQ t Z.,X^.yXO.@ . @ H bX#X{ p.#X,XK.}.R.&Xu.$X_.1 @                               ",
"                                . 9 qX}.t.j.[.k.{ }.#X^.dXj @   # ) }.:Xi.F.#X>X).! q.;X+.$X4Xj .                               ",
"                                . # Z.%X} 8.(.-Xl.S.^.#X0X> . . @ *.G.:X!.!.Q.+XtXm d.;Xp.dX4Xj .                               ",
"                                  . F mXg.8.l..XT.9.~.cX,.# .   . h `.).,X!.Q.D.tX .s..X|.9X2.a .                               ",
"                                X . ; 5Xv.} 8.l.x.r.R.vXx . .     @ M `.bX#X#X@X}.e.d.s.*Xc./ 2 .                               ",
"                                  . - :.aX .' } x.0.=X0X$ .       . # o.iXA.F.K.H.H.f.L.pXj - .                                 ",
"                                  . @ l kXg.` [ j.l.eX~ @ .         @ z `.-X@.f.T.u.H.eX) # .                                   ",
"                                  . . ; 5Xc.T W j.9.pXj .             @ F sXq.q.OXH.u.sXz @                                     ",
"                                      # >.aXX.X.t.v.2X- .         X   . ; 4X*X[.q.H.-X`.> .                                     ",
"                                      . j lXX.' q.eX<.# .             . # <XsXK.S.a.fX_ # .                                     ",
"                                    X   ; 6Xb.` f.sXz @               . # G eXK.#.#.kXj . .                                     ",
"                                        # *.aX@.=X'.- .         o o     . ; 5X$X@.$X7X- .                                       ",
"                                        @ i gXG.dX~ @                   . @ ) vX#.mXG @ .                                       ",
"                                        @ - C.$X5Xp @ o   X         X     . > zX@.8Xi .                                         ",
"                                        . @ D zX5.- .                 X   . @ N.6X1.# .                                         ",
"                                          . : S 5 @                         @ 7 J 9 .                                           ",
"                                              . .                             . @ .   .                                         ",
"                                          .                                                                                     ",
"                                              .                                 .                                               ",
"                                                                                                                                ",
"                                            .                                                                                   ",
"                                                                                                                                ",
"                                                                                                                                ",
"                                                                                                                                ",
"                                                                                                                    X           ",
"                                                                                              X       X                         ",
"                                                                                      + X   X   X   X     O     X     X X X X   ",
"                                                                                        X O X X O   O O X     X   X O   X   X X ",
"                                                                                    X   + O   e I L   K L e L K P K K L % X X O ",
"                                                                                        + .   e I L   P L K L L L e e L X X X O ",
"                                                                                      X . X +   X   O * X *     X X     X O X X "
};
